<svg xmlns="http://www.w3.org/2000/svg" xmlns:xlink="http://www.w3.org/1999/xlink" width="2000" zoomAndPan="magnify" viewBox="0 0 1500 1499.999933" height="2000" preserveAspectRatio="xMidYMid meet" version="1.0"><defs><radialGradient gradientTransform="matrix(1, 0, 0, 1, 0.00003335, -0.00002)" gradientUnits="userSpaceOnUse" r="1060.660445" cx="749.999967" id="781c66aa84" cy="749.999967" fx="749.999967" fy="749.999967"><stop stop-opacity="1" stop-color="rgb(99.876404%, 86.962891%, 34.841919%)" offset="0"/><stop stop-opacity="1" stop-color="rgb(99.629211%, 86.769104%, 34.729004%)" offset="0.00390625"/><stop stop-opacity="1" stop-color="rgb(99.382019%, 86.576843%, 34.616089%)" offset="0.0078125"/><stop stop-opacity="1" stop-color="rgb(99.136353%, 86.383057%, 34.501648%)" offset="0.0117188"/><stop stop-opacity="1" stop-color="rgb(98.88916%, 86.190796%, 34.388733%)" offset="0.015625"/><stop stop-opacity="1" stop-color="rgb(98.641968%, 85.997009%, 34.275818%)" offset="0.0195312"/><stop stop-opacity="1" stop-color="rgb(98.396301%, 85.804749%, 34.162903%)" offset="0.0234375"/><stop stop-opacity="1" stop-color="rgb(98.149109%, 85.610962%, 34.048462%)" offset="0.0273438"/><stop stop-opacity="1" stop-color="rgb(97.901917%, 85.418701%, 33.935547%)" offset="0.03125"/><stop stop-opacity="1" stop-color="rgb(97.65625%, 85.224915%, 33.822632%)" offset="0.0351562"/><stop stop-opacity="1" stop-color="rgb(97.409058%, 85.032654%, 33.708191%)" offset="0.0390625"/><stop stop-opacity="1" stop-color="rgb(97.161865%, 84.838867%, 33.595276%)" offset="0.0429688"/><stop stop-opacity="1" stop-color="rgb(96.916199%, 84.646606%, 33.482361%)" offset="0.046875"/><stop stop-opacity="1" stop-color="rgb(96.669006%, 84.45282%, 33.36792%)" offset="0.0507812"/><stop stop-opacity="1" stop-color="rgb(96.42334%, 84.260559%, 33.255005%)" offset="0.0546875"/><stop stop-opacity="1" stop-color="rgb(96.176147%, 84.066772%, 33.14209%)" offset="0.0585938"/><stop stop-opacity="1" stop-color="rgb(95.928955%, 83.874512%, 33.029175%)" offset="0.0625"/><stop stop-opacity="1" stop-color="rgb(95.683289%, 83.680725%, 32.914734%)" offset="0.0664062"/><stop stop-opacity="1" stop-color="rgb(95.436096%, 83.488464%, 32.801819%)" offset="0.0703125"/><stop stop-opacity="1" stop-color="rgb(95.188904%, 83.294678%, 32.688904%)" offset="0.0742188"/><stop stop-opacity="1" stop-color="rgb(94.943237%, 83.102417%, 32.574463%)" offset="0.078125"/><stop stop-opacity="1" stop-color="rgb(94.696045%, 82.90863%, 32.461548%)" offset="0.0820312"/><stop stop-opacity="1" stop-color="rgb(94.448853%, 82.71637%, 32.348633%)" offset="0.0859375"/><stop stop-opacity="1" stop-color="rgb(94.203186%, 82.522583%, 32.235718%)" offset="0.0898438"/><stop stop-opacity="1" stop-color="rgb(93.955994%, 82.330322%, 32.121277%)" offset="0.09375"/><stop stop-opacity="1" stop-color="rgb(93.710327%, 82.136536%, 32.008362%)" offset="0.0976562"/><stop stop-opacity="1" stop-color="rgb(93.463135%, 81.944275%, 31.895447%)" offset="0.101562"/><stop stop-opacity="1" stop-color="rgb(93.215942%, 81.750488%, 31.781006%)" offset="0.105469"/><stop stop-opacity="1" stop-color="rgb(92.970276%, 81.558228%, 31.668091%)" offset="0.109375"/><stop stop-opacity="1" stop-color="rgb(92.723083%, 81.364441%, 31.555176%)" offset="0.113281"/><stop stop-opacity="1" stop-color="rgb(92.475891%, 81.17218%, 31.442261%)" offset="0.117188"/><stop stop-opacity="1" stop-color="rgb(92.230225%, 80.978394%, 31.32782%)" offset="0.121094"/><stop stop-opacity="1" stop-color="rgb(91.983032%, 80.786133%, 31.214905%)" offset="0.125"/><stop stop-opacity="1" stop-color="rgb(91.73584%, 80.592346%, 31.10199%)" offset="0.128906"/><stop stop-opacity="1" stop-color="rgb(91.490173%, 80.400085%, 30.987549%)" offset="0.132812"/><stop stop-opacity="1" stop-color="rgb(91.242981%, 80.207825%, 30.874634%)" offset="0.136719"/><stop stop-opacity="1" stop-color="rgb(90.997314%, 80.014038%, 30.761719%)" offset="0.140625"/><stop stop-opacity="1" stop-color="rgb(90.750122%, 79.821777%, 30.647278%)" offset="0.144531"/><stop stop-opacity="1" stop-color="rgb(90.50293%, 79.627991%, 30.534363%)" offset="0.148438"/><stop stop-opacity="1" stop-color="rgb(90.257263%, 79.43573%, 30.421448%)" offset="0.152344"/><stop stop-opacity="1" stop-color="rgb(90.010071%, 79.241943%, 30.308533%)" offset="0.15625"/><stop stop-opacity="1" stop-color="rgb(89.762878%, 79.049683%, 30.194092%)" offset="0.160156"/><stop stop-opacity="1" stop-color="rgb(89.517212%, 78.855896%, 30.081177%)" offset="0.164062"/><stop stop-opacity="1" stop-color="rgb(89.27002%, 78.663635%, 29.968262%)" offset="0.167969"/><stop stop-opacity="1" stop-color="rgb(89.022827%, 78.469849%, 29.853821%)" offset="0.171875"/><stop stop-opacity="1" stop-color="rgb(88.777161%, 78.277588%, 29.740906%)" offset="0.175781"/><stop stop-opacity="1" stop-color="rgb(88.529968%, 78.083801%, 29.627991%)" offset="0.179688"/><stop stop-opacity="1" stop-color="rgb(88.282776%, 77.891541%, 29.515076%)" offset="0.183594"/><stop stop-opacity="1" stop-color="rgb(88.037109%, 77.697754%, 29.400635%)" offset="0.1875"/><stop stop-opacity="1" stop-color="rgb(87.789917%, 77.505493%, 29.28772%)" offset="0.191406"/><stop stop-opacity="1" stop-color="rgb(87.54425%, 77.311707%, 29.174805%)" offset="0.195312"/><stop stop-opacity="1" stop-color="rgb(87.297058%, 77.119446%, 29.060364%)" offset="0.199219"/><stop stop-opacity="1" stop-color="rgb(87.049866%, 76.925659%, 28.947449%)" offset="0.203125"/><stop stop-opacity="1" stop-color="rgb(86.804199%, 76.733398%, 28.834534%)" offset="0.207031"/><stop stop-opacity="1" stop-color="rgb(86.557007%, 76.539612%, 28.721619%)" offset="0.210938"/><stop stop-opacity="1" stop-color="rgb(86.309814%, 76.347351%, 28.607178%)" offset="0.214844"/><stop stop-opacity="1" stop-color="rgb(86.064148%, 76.153564%, 28.494263%)" offset="0.21875"/><stop stop-opacity="1" stop-color="rgb(85.816956%, 75.961304%, 28.381348%)" offset="0.222656"/><stop stop-opacity="1" stop-color="rgb(85.569763%, 75.767517%, 28.266907%)" offset="0.226562"/><stop stop-opacity="1" stop-color="rgb(85.324097%, 75.575256%, 28.153992%)" offset="0.230469"/><stop stop-opacity="1" stop-color="rgb(85.076904%, 75.38147%, 28.041077%)" offset="0.234375"/><stop stop-opacity="1" stop-color="rgb(84.831238%, 75.189209%, 27.928162%)" offset="0.238281"/><stop stop-opacity="1" stop-color="rgb(84.584045%, 74.995422%, 27.813721%)" offset="0.242188"/><stop stop-opacity="1" stop-color="rgb(84.336853%, 74.803162%, 27.700806%)" offset="0.246094"/><stop stop-opacity="1" stop-color="rgb(84.091187%, 74.609375%, 27.587891%)" offset="0.25"/><stop stop-opacity="1" stop-color="rgb(83.843994%, 74.417114%, 27.47345%)" offset="0.253906"/><stop stop-opacity="1" stop-color="rgb(83.596802%, 74.223328%, 27.360535%)" offset="0.257812"/><stop stop-opacity="1" stop-color="rgb(83.351135%, 74.031067%, 27.24762%)" offset="0.261719"/><stop stop-opacity="1" stop-color="rgb(83.103943%, 73.83728%, 27.133179%)" offset="0.265625"/><stop stop-opacity="1" stop-color="rgb(82.85675%, 73.64502%, 27.020264%)" offset="0.269531"/><stop stop-opacity="1" stop-color="rgb(82.611084%, 73.451233%, 26.907349%)" offset="0.273438"/><stop stop-opacity="1" stop-color="rgb(82.363892%, 73.258972%, 26.794434%)" offset="0.277344"/><stop stop-opacity="1" stop-color="rgb(82.118225%, 73.065186%, 26.679993%)" offset="0.28125"/><stop stop-opacity="1" stop-color="rgb(81.871033%, 72.872925%, 26.567078%)" offset="0.285156"/><stop stop-opacity="1" stop-color="rgb(81.62384%, 72.679138%, 26.454163%)" offset="0.289062"/><stop stop-opacity="1" stop-color="rgb(81.378174%, 72.486877%, 26.339722%)" offset="0.292969"/><stop stop-opacity="1" stop-color="rgb(81.130981%, 72.293091%, 26.226807%)" offset="0.296875"/><stop stop-opacity="1" stop-color="rgb(80.883789%, 72.10083%, 26.113892%)" offset="0.300781"/><stop stop-opacity="1" stop-color="rgb(80.638123%, 71.907043%, 26.000977%)" offset="0.304688"/><stop stop-opacity="1" stop-color="rgb(80.39093%, 71.714783%, 25.886536%)" offset="0.308594"/><stop stop-opacity="1" stop-color="rgb(80.143738%, 71.520996%, 25.773621%)" offset="0.3125"/><stop stop-opacity="1" stop-color="rgb(79.898071%, 71.328735%, 25.660706%)" offset="0.316406"/><stop stop-opacity="1" stop-color="rgb(79.650879%, 71.136475%, 25.546265%)" offset="0.320312"/><stop stop-opacity="1" stop-color="rgb(79.405212%, 70.942688%, 25.43335%)" offset="0.324219"/><stop stop-opacity="1" stop-color="rgb(79.15802%, 70.750427%, 25.320435%)" offset="0.328125"/><stop stop-opacity="1" stop-color="rgb(78.910828%, 70.556641%, 25.20752%)" offset="0.332031"/><stop stop-opacity="1" stop-color="rgb(78.665161%, 70.36438%, 25.093079%)" offset="0.335938"/><stop stop-opacity="1" stop-color="rgb(78.417969%, 70.170593%, 24.980164%)" offset="0.339844"/><stop stop-opacity="1" stop-color="rgb(78.170776%, 69.978333%, 24.867249%)" offset="0.34375"/><stop stop-opacity="1" stop-color="rgb(77.92511%, 69.784546%, 24.752808%)" offset="0.347656"/><stop stop-opacity="1" stop-color="rgb(77.677917%, 69.592285%, 24.639893%)" offset="0.351562"/><stop stop-opacity="1" stop-color="rgb(77.430725%, 69.398499%, 24.526978%)" offset="0.355469"/><stop stop-opacity="1" stop-color="rgb(77.185059%, 69.206238%, 24.412537%)" offset="0.359375"/><stop stop-opacity="1" stop-color="rgb(76.937866%, 69.012451%, 24.299622%)" offset="0.363281"/><stop stop-opacity="1" stop-color="rgb(76.690674%, 68.82019%, 24.186707%)" offset="0.367188"/><stop stop-opacity="1" stop-color="rgb(76.445007%, 68.626404%, 24.073792%)" offset="0.371094"/><stop stop-opacity="1" stop-color="rgb(76.197815%, 68.434143%, 23.959351%)" offset="0.375"/><stop stop-opacity="1" stop-color="rgb(75.952148%, 68.240356%, 23.846436%)" offset="0.378906"/><stop stop-opacity="1" stop-color="rgb(75.704956%, 68.048096%, 23.733521%)" offset="0.382812"/><stop stop-opacity="1" stop-color="rgb(75.457764%, 67.854309%, 23.61908%)" offset="0.386719"/><stop stop-opacity="1" stop-color="rgb(75.212097%, 67.662048%, 23.506165%)" offset="0.390625"/><stop stop-opacity="1" stop-color="rgb(74.964905%, 67.468262%, 23.39325%)" offset="0.394531"/><stop stop-opacity="1" stop-color="rgb(74.717712%, 67.276001%, 23.280334%)" offset="0.398438"/><stop stop-opacity="1" stop-color="rgb(74.472046%, 67.082214%, 23.165894%)" offset="0.402344"/><stop stop-opacity="1" stop-color="rgb(74.224854%, 66.889954%, 23.052979%)" offset="0.40625"/><stop stop-opacity="1" stop-color="rgb(73.977661%, 66.696167%, 22.940063%)" offset="0.410156"/><stop stop-opacity="1" stop-color="rgb(73.731995%, 66.503906%, 22.825623%)" offset="0.414062"/><stop stop-opacity="1" stop-color="rgb(73.484802%, 66.31012%, 22.712708%)" offset="0.417969"/><stop stop-opacity="1" stop-color="rgb(73.239136%, 66.117859%, 22.599792%)" offset="0.421875"/><stop stop-opacity="1" stop-color="rgb(72.991943%, 65.924072%, 22.486877%)" offset="0.425781"/><stop stop-opacity="1" stop-color="rgb(72.744751%, 65.731812%, 22.372437%)" offset="0.429688"/><stop stop-opacity="1" stop-color="rgb(72.499084%, 65.538025%, 22.259521%)" offset="0.433594"/><stop stop-opacity="1" stop-color="rgb(72.251892%, 65.345764%, 22.146606%)" offset="0.4375"/><stop stop-opacity="1" stop-color="rgb(72.0047%, 65.151978%, 22.032166%)" offset="0.441406"/><stop stop-opacity="1" stop-color="rgb(71.759033%, 64.959717%, 21.91925%)" offset="0.445312"/><stop stop-opacity="1" stop-color="rgb(71.511841%, 64.76593%, 21.806335%)" offset="0.449219"/><stop stop-opacity="1" stop-color="rgb(71.264648%, 64.573669%, 21.691895%)" offset="0.453125"/><stop stop-opacity="1" stop-color="rgb(71.018982%, 64.379883%, 21.578979%)" offset="0.457031"/><stop stop-opacity="1" stop-color="rgb(70.77179%, 64.187622%, 21.466064%)" offset="0.460938"/><stop stop-opacity="1" stop-color="rgb(70.526123%, 63.993835%, 21.353149%)" offset="0.464844"/><stop stop-opacity="1" stop-color="rgb(70.278931%, 63.801575%, 21.238708%)" offset="0.46875"/><stop stop-opacity="1" stop-color="rgb(70.031738%, 63.607788%, 21.125793%)" offset="0.472656"/><stop stop-opacity="1" stop-color="rgb(69.786072%, 63.415527%, 21.012878%)" offset="0.476562"/><stop stop-opacity="1" stop-color="rgb(69.538879%, 63.221741%, 20.898438%)" offset="0.480469"/><stop stop-opacity="1" stop-color="rgb(69.291687%, 63.02948%, 20.785522%)" offset="0.484375"/><stop stop-opacity="1" stop-color="rgb(69.046021%, 62.835693%, 20.672607%)" offset="0.488281"/><stop stop-opacity="1" stop-color="rgb(68.798828%, 62.643433%, 20.559692%)" offset="0.492188"/><stop stop-opacity="1" stop-color="rgb(68.551636%, 62.449646%, 20.445251%)" offset="0.496094"/><stop stop-opacity="1" stop-color="rgb(68.305969%, 62.257385%, 20.332336%)" offset="0.5"/><stop stop-opacity="1" stop-color="rgb(68.058777%, 62.063599%, 20.219421%)" offset="0.503906"/><stop stop-opacity="1" stop-color="rgb(67.81311%, 61.871338%, 20.10498%)" offset="0.507812"/><stop stop-opacity="1" stop-color="rgb(67.565918%, 61.679077%, 19.992065%)" offset="0.511719"/><stop stop-opacity="1" stop-color="rgb(67.318726%, 61.485291%, 19.87915%)" offset="0.515625"/><stop stop-opacity="1" stop-color="rgb(67.073059%, 61.29303%, 19.766235%)" offset="0.519531"/><stop stop-opacity="1" stop-color="rgb(66.825867%, 61.099243%, 19.651794%)" offset="0.523438"/><stop stop-opacity="1" stop-color="rgb(66.578674%, 60.906982%, 19.538879%)" offset="0.527344"/><stop stop-opacity="1" stop-color="rgb(66.333008%, 60.713196%, 19.425964%)" offset="0.53125"/><stop stop-opacity="1" stop-color="rgb(66.085815%, 60.520935%, 19.311523%)" offset="0.535156"/><stop stop-opacity="1" stop-color="rgb(65.838623%, 60.327148%, 19.198608%)" offset="0.539062"/><stop stop-opacity="1" stop-color="rgb(65.592957%, 60.134888%, 19.085693%)" offset="0.542969"/><stop stop-opacity="1" stop-color="rgb(65.345764%, 59.941101%, 18.972778%)" offset="0.546875"/><stop stop-opacity="1" stop-color="rgb(65.098572%, 59.74884%, 18.858337%)" offset="0.550781"/><stop stop-opacity="1" stop-color="rgb(64.852905%, 59.555054%, 18.745422%)" offset="0.554688"/><stop stop-opacity="1" stop-color="rgb(64.605713%, 59.362793%, 18.632507%)" offset="0.558594"/><stop stop-opacity="1" stop-color="rgb(64.360046%, 59.169006%, 18.518066%)" offset="0.5625"/><stop stop-opacity="1" stop-color="rgb(64.112854%, 58.976746%, 18.405151%)" offset="0.566406"/><stop stop-opacity="1" stop-color="rgb(63.865662%, 58.782959%, 18.292236%)" offset="0.570312"/><stop stop-opacity="1" stop-color="rgb(63.619995%, 58.590698%, 18.177795%)" offset="0.574219"/><stop stop-opacity="1" stop-color="rgb(63.372803%, 58.396912%, 18.06488%)" offset="0.578125"/><stop stop-opacity="1" stop-color="rgb(63.12561%, 58.204651%, 17.951965%)" offset="0.582031"/><stop stop-opacity="1" stop-color="rgb(62.879944%, 58.010864%, 17.83905%)" offset="0.585938"/><stop stop-opacity="1" stop-color="rgb(62.632751%, 57.818604%, 17.724609%)" offset="0.589844"/><stop stop-opacity="1" stop-color="rgb(62.385559%, 57.624817%, 17.611694%)" offset="0.59375"/><stop stop-opacity="1" stop-color="rgb(62.139893%, 57.432556%, 17.498779%)" offset="0.597656"/><stop stop-opacity="1" stop-color="rgb(61.8927%, 57.23877%, 17.384338%)" offset="0.601562"/><stop stop-opacity="1" stop-color="rgb(61.647034%, 57.046509%, 17.271423%)" offset="0.605469"/><stop stop-opacity="1" stop-color="rgb(61.399841%, 56.852722%, 17.158508%)" offset="0.609375"/><stop stop-opacity="1" stop-color="rgb(61.152649%, 56.660461%, 17.045593%)" offset="0.613281"/><stop stop-opacity="1" stop-color="rgb(60.906982%, 56.466675%, 16.931152%)" offset="0.617188"/><stop stop-opacity="1" stop-color="rgb(60.65979%, 56.274414%, 16.818237%)" offset="0.621094"/><stop stop-opacity="1" stop-color="rgb(60.412598%, 56.080627%, 16.705322%)" offset="0.625"/><stop stop-opacity="1" stop-color="rgb(60.166931%, 55.888367%, 16.590881%)" offset="0.628906"/><stop stop-opacity="1" stop-color="rgb(59.919739%, 55.69458%, 16.477966%)" offset="0.632812"/><stop stop-opacity="1" stop-color="rgb(59.672546%, 55.502319%, 16.365051%)" offset="0.636719"/><stop stop-opacity="1" stop-color="rgb(59.42688%, 55.308533%, 16.252136%)" offset="0.640625"/><stop stop-opacity="1" stop-color="rgb(59.179688%, 55.116272%, 16.137695%)" offset="0.644531"/><stop stop-opacity="1" stop-color="rgb(58.934021%, 54.922485%, 16.02478%)" offset="0.648438"/><stop stop-opacity="1" stop-color="rgb(58.686829%, 54.730225%, 15.911865%)" offset="0.652344"/><stop stop-opacity="1" stop-color="rgb(58.439636%, 54.536438%, 15.797424%)" offset="0.65625"/><stop stop-opacity="1" stop-color="rgb(58.19397%, 54.344177%, 15.684509%)" offset="0.660156"/><stop stop-opacity="1" stop-color="rgb(57.946777%, 54.150391%, 15.571594%)" offset="0.664062"/><stop stop-opacity="1" stop-color="rgb(57.699585%, 53.95813%, 15.457153%)" offset="0.667969"/><stop stop-opacity="1" stop-color="rgb(57.453918%, 53.764343%, 15.344238%)" offset="0.671875"/><stop stop-opacity="1" stop-color="rgb(57.206726%, 53.572083%, 15.231323%)" offset="0.675781"/><stop stop-opacity="1" stop-color="rgb(56.959534%, 53.378296%, 15.118408%)" offset="0.679688"/><stop stop-opacity="1" stop-color="rgb(56.713867%, 53.186035%, 15.003967%)" offset="0.683594"/><stop stop-opacity="1" stop-color="rgb(56.466675%, 52.992249%, 14.891052%)" offset="0.6875"/><stop stop-opacity="1" stop-color="rgb(56.221008%, 52.799988%, 14.778137%)" offset="0.691406"/><stop stop-opacity="1" stop-color="rgb(55.973816%, 52.607727%, 14.663696%)" offset="0.695312"/><stop stop-opacity="1" stop-color="rgb(55.726624%, 52.41394%, 14.550781%)" offset="0.699219"/><stop stop-opacity="1" stop-color="rgb(55.480957%, 52.22168%, 14.437866%)" offset="0.703125"/><stop stop-opacity="1" stop-color="rgb(55.233765%, 52.027893%, 14.324951%)" offset="0.707031"/><stop stop-opacity="1" stop-color="rgb(54.986572%, 51.835632%, 14.21051%)" offset="0.710938"/><stop stop-opacity="1" stop-color="rgb(54.740906%, 51.641846%, 14.097595%)" offset="0.714844"/><stop stop-opacity="1" stop-color="rgb(54.493713%, 51.449585%, 13.98468%)" offset="0.71875"/><stop stop-opacity="1" stop-color="rgb(54.246521%, 51.255798%, 13.870239%)" offset="0.722656"/><stop stop-opacity="1" stop-color="rgb(54.000854%, 51.063538%, 13.757324%)" offset="0.726562"/><stop stop-opacity="1" stop-color="rgb(53.753662%, 50.869751%, 13.644409%)" offset="0.730469"/><stop stop-opacity="1" stop-color="rgb(53.50647%, 50.67749%, 13.531494%)" offset="0.734375"/><stop stop-opacity="1" stop-color="rgb(53.260803%, 50.483704%, 13.417053%)" offset="0.738281"/><stop stop-opacity="1" stop-color="rgb(53.013611%, 50.291443%, 13.304138%)" offset="0.742188"/><stop stop-opacity="1" stop-color="rgb(52.767944%, 50.097656%, 13.191223%)" offset="0.746094"/><stop stop-opacity="1" stop-color="rgb(52.520752%, 49.905396%, 13.076782%)" offset="0.75"/><stop stop-opacity="1" stop-color="rgb(52.27356%, 49.711609%, 12.963867%)" offset="0.753906"/><stop stop-opacity="1" stop-color="rgb(52.027893%, 49.519348%, 12.850952%)" offset="0.757812"/><stop stop-opacity="1" stop-color="rgb(51.780701%, 49.325562%, 12.736511%)" offset="0.761719"/><stop stop-opacity="1" stop-color="rgb(51.533508%, 49.133301%, 12.623596%)" offset="0.765625"/><stop stop-opacity="1" stop-color="rgb(51.287842%, 48.939514%, 12.510681%)" offset="0.769531"/><stop stop-opacity="1" stop-color="rgb(51.040649%, 48.747253%, 12.397766%)" offset="0.773438"/><stop stop-opacity="1" stop-color="rgb(50.793457%, 48.553467%, 12.283325%)" offset="0.777344"/><stop stop-opacity="1" stop-color="rgb(50.547791%, 48.361206%, 12.17041%)" offset="0.78125"/><stop stop-opacity="1" stop-color="rgb(50.300598%, 48.167419%, 12.057495%)" offset="0.785156"/><stop stop-opacity="1" stop-color="rgb(50.054932%, 47.975159%, 11.943054%)" offset="0.789062"/><stop stop-opacity="1" stop-color="rgb(49.807739%, 47.781372%, 11.830139%)" offset="0.792969"/><stop stop-opacity="1" stop-color="rgb(49.560547%, 47.589111%, 11.717224%)" offset="0.796875"/><stop stop-opacity="1" stop-color="rgb(49.31488%, 47.395325%, 11.604309%)" offset="0.800781"/><stop stop-opacity="1" stop-color="rgb(49.067688%, 47.203064%, 11.489868%)" offset="0.804688"/><stop stop-opacity="1" stop-color="rgb(48.820496%, 47.009277%, 11.376953%)" offset="0.808594"/><stop stop-opacity="1" stop-color="rgb(48.574829%, 46.817017%, 11.264038%)" offset="0.8125"/><stop stop-opacity="1" stop-color="rgb(48.327637%, 46.62323%, 11.149597%)" offset="0.816406"/><stop stop-opacity="1" stop-color="rgb(48.080444%, 46.430969%, 11.036682%)" offset="0.820312"/><stop stop-opacity="1" stop-color="rgb(47.834778%, 46.237183%, 10.923767%)" offset="0.824219"/><stop stop-opacity="1" stop-color="rgb(47.587585%, 46.044922%, 10.810852%)" offset="0.828125"/><stop stop-opacity="1" stop-color="rgb(47.341919%, 45.851135%, 10.696411%)" offset="0.832031"/><stop stop-opacity="1" stop-color="rgb(47.094727%, 45.658875%, 10.583496%)" offset="0.835938"/><stop stop-opacity="1" stop-color="rgb(46.847534%, 45.465088%, 10.470581%)" offset="0.839844"/><stop stop-opacity="1" stop-color="rgb(46.601868%, 45.272827%, 10.35614%)" offset="0.84375"/><stop stop-opacity="1" stop-color="rgb(46.354675%, 45.079041%, 10.243225%)" offset="0.847656"/><stop stop-opacity="1" stop-color="rgb(46.107483%, 44.88678%, 10.13031%)" offset="0.851562"/><stop stop-opacity="1" stop-color="rgb(45.861816%, 44.692993%, 10.017395%)" offset="0.855469"/><stop stop-opacity="1" stop-color="rgb(45.614624%, 44.500732%, 9.902954%)" offset="0.859375"/><stop stop-opacity="1" stop-color="rgb(45.367432%, 44.306946%, 9.790039%)" offset="0.863281"/><stop stop-opacity="1" stop-color="rgb(45.121765%, 44.114685%, 9.677124%)" offset="0.867188"/><stop stop-opacity="1" stop-color="rgb(44.874573%, 43.920898%, 9.562683%)" offset="0.871094"/><stop stop-opacity="1" stop-color="rgb(44.62738%, 43.728638%, 9.449768%)" offset="0.875"/><stop stop-opacity="1" stop-color="rgb(44.381714%, 43.534851%, 9.336853%)" offset="0.878906"/><stop stop-opacity="1" stop-color="rgb(44.134521%, 43.34259%, 9.222412%)" offset="0.882812"/><stop stop-opacity="1" stop-color="rgb(43.888855%, 43.15033%, 9.109497%)" offset="0.886719"/><stop stop-opacity="1" stop-color="rgb(43.641663%, 42.956543%, 8.996582%)" offset="0.890625"/><stop stop-opacity="1" stop-color="rgb(43.39447%, 42.764282%, 8.883667%)" offset="0.894531"/><stop stop-opacity="1" stop-color="rgb(43.148804%, 42.570496%, 8.769226%)" offset="0.898438"/><stop stop-opacity="1" stop-color="rgb(42.901611%, 42.378235%, 8.656311%)" offset="0.902344"/><stop stop-opacity="1" stop-color="rgb(42.654419%, 42.184448%, 8.543396%)" offset="0.90625"/><stop stop-opacity="1" stop-color="rgb(42.408752%, 41.992188%, 8.428955%)" offset="0.910156"/><stop stop-opacity="1" stop-color="rgb(42.16156%, 41.798401%, 8.31604%)" offset="0.914062"/><stop stop-opacity="1" stop-color="rgb(41.914368%, 41.60614%, 8.203125%)" offset="0.917969"/><stop stop-opacity="1" stop-color="rgb(41.668701%, 41.412354%, 8.09021%)" offset="0.921875"/><stop stop-opacity="1" stop-color="rgb(41.421509%, 41.220093%, 7.975769%)" offset="0.925781"/><stop stop-opacity="1" stop-color="rgb(41.175842%, 41.026306%, 7.862854%)" offset="0.929688"/><stop stop-opacity="1" stop-color="rgb(40.92865%, 40.834045%, 7.749939%)" offset="0.933594"/><stop stop-opacity="1" stop-color="rgb(40.681458%, 40.640259%, 7.635498%)" offset="0.9375"/><stop stop-opacity="1" stop-color="rgb(40.435791%, 40.447998%, 7.522583%)" offset="0.941406"/><stop stop-opacity="1" stop-color="rgb(40.188599%, 40.254211%, 7.409668%)" offset="0.945312"/><stop stop-opacity="1" stop-color="rgb(39.941406%, 40.061951%, 7.296753%)" offset="0.949219"/><stop stop-opacity="1" stop-color="rgb(39.69574%, 39.868164%, 7.182312%)" offset="0.953125"/><stop stop-opacity="1" stop-color="rgb(39.448547%, 39.675903%, 7.069397%)" offset="0.957031"/><stop stop-opacity="1" stop-color="rgb(39.201355%, 39.482117%, 6.956482%)" offset="0.960938"/><stop stop-opacity="1" stop-color="rgb(38.955688%, 39.289856%, 6.842041%)" offset="0.964844"/><stop stop-opacity="1" stop-color="rgb(38.708496%, 39.096069%, 6.729126%)" offset="0.96875"/><stop stop-opacity="1" stop-color="rgb(38.46283%, 38.903809%, 6.616211%)" offset="0.972656"/><stop stop-opacity="1" stop-color="rgb(38.215637%, 38.710022%, 6.50177%)" offset="0.976562"/><stop stop-opacity="1" stop-color="rgb(37.968445%, 38.517761%, 6.388855%)" offset="0.980469"/><stop stop-opacity="1" stop-color="rgb(37.722778%, 38.323975%, 6.27594%)" offset="0.984375"/><stop stop-opacity="1" stop-color="rgb(37.475586%, 38.131714%, 6.163025%)" offset="0.988281"/><stop stop-opacity="1" stop-color="rgb(37.228394%, 37.937927%, 6.048584%)" offset="0.992188"/><stop stop-opacity="1" stop-color="rgb(36.982727%, 37.745667%, 5.935669%)" offset="0.996094"/><stop stop-opacity="1" stop-color="rgb(36.859131%, 37.649536%, 5.879211%)" offset="1"/></radialGradient></defs><rect x="-150" width="1800" fill="#ffffff" y="-149.999993" height="1799.99992" fill-opacity="1"/><rect x="-150" fill="url(#781c66aa84)" width="1800" y="-149.999993" height="1799.99992"/><path fill="#000000" d="M 915.007812 970.507812 L 584.992188 970.507812 C 554.386719 970.507812 529.492188 945.613281 529.492188 915.007812 L 529.492188 584.992188 C 529.492188 554.386719 554.386719 529.492188 584.992188 529.492188 L 915.007812 529.492188 C 945.605469 529.492188 970.503906 554.386719 970.503906 584.992188 L 970.503906 915.007812 C 970.503906 945.613281 945.605469 970.507812 915.007812 970.507812 Z M 584.992188 553.019531 C 567.363281 553.019531 553.019531 567.363281 553.019531 584.992188 L 553.019531 915.007812 C 553.019531 932.640625 567.363281 946.980469 584.992188 946.980469 L 915.007812 946.980469 C 932.636719 946.980469 946.976562 932.640625 946.976562 915.007812 L 946.976562 584.992188 C 946.976562 567.363281 932.636719 553.019531 915.007812 553.019531 Z M 584.992188 553.019531 " fill-opacity="1" fill-rule="nonzero"/><path fill="#000000" d="M 845.378906 857.144531 L 654.621094 857.144531 C 648.121094 857.144531 642.855469 851.878906 642.855469 845.378906 L 642.855469 654.617188 C 642.855469 648.121094 648.121094 642.855469 654.621094 642.855469 L 845.378906 642.855469 C 851.878906 642.855469 857.144531 648.121094 857.144531 654.617188 L 857.144531 845.378906 C 857.144531 851.878906 851.878906 857.144531 845.378906 857.144531 Z M 666.382812 833.617188 L 833.617188 833.617188 L 833.617188 666.382812 L 666.382812 666.382812 Z M 666.382812 833.617188 " fill-opacity="1" fill-rule="nonzero"/><path fill="#000000" d="M 612.59375 1045.273438 C 606.097656 1045.273438 600.832031 1040.011719 600.832031 1033.507812 L 600.832031 958.742188 C 600.832031 952.242188 606.097656 946.976562 612.59375 946.976562 C 619.09375 946.976562 624.359375 952.238281 624.359375 958.742188 L 624.359375 1033.507812 C 624.359375 1040.011719 619.09375 1045.273438 612.59375 1045.273438 Z M 612.59375 1045.273438 " fill-opacity="1" fill-rule="nonzero"/><path fill="#000000" d="M 612.59375 553.027344 C 606.097656 553.027344 600.832031 547.757812 600.832031 541.261719 L 600.832031 466.488281 C 600.832031 459.992188 606.097656 454.722656 612.59375 454.722656 C 619.09375 454.722656 624.359375 459.992188 624.359375 466.488281 L 624.359375 541.261719 C 624.359375 547.757812 619.09375 553.027344 612.59375 553.027344 Z M 612.59375 553.027344 " fill-opacity="1" fill-rule="nonzero"/><path fill="#000000" d="M 704.199219 1045.273438 C 697.703125 1045.273438 692.433594 1040.011719 692.433594 1033.507812 L 692.433594 958.742188 C 692.433594 952.242188 697.703125 946.976562 704.199219 946.976562 C 710.695312 946.976562 715.964844 952.238281 715.964844 958.742188 L 715.964844 1033.507812 C 715.964844 1040.011719 710.695312 1045.273438 704.199219 1045.273438 Z M 704.199219 1045.273438 " fill-opacity="1" fill-rule="nonzero"/><path fill="#000000" d="M 704.199219 553.027344 C 697.703125 553.027344 692.433594 547.757812 692.433594 541.261719 L 692.433594 466.488281 C 692.433594 459.992188 697.703125 454.722656 704.199219 454.722656 C 710.695312 454.722656 715.964844 459.992188 715.964844 466.488281 L 715.964844 541.261719 C 715.964844 547.757812 710.695312 553.027344 704.199219 553.027344 Z M 704.199219 553.027344 " fill-opacity="1" fill-rule="nonzero"/><path fill="#000000" d="M 795.800781 1045.273438 C 789.304688 1045.273438 784.035156 1040.011719 784.035156 1033.507812 L 784.035156 958.742188 C 784.035156 952.242188 789.304688 946.976562 795.800781 946.976562 C 802.296875 946.976562 807.566406 952.238281 807.566406 958.742188 L 807.566406 1033.507812 C 807.566406 1040.011719 802.296875 1045.273438 795.800781 1045.273438 Z M 795.800781 1045.273438 " fill-opacity="1" fill-rule="nonzero"/><path fill="#000000" d="M 795.800781 553.027344 C 789.304688 553.027344 784.035156 547.757812 784.035156 541.261719 L 784.035156 466.488281 C 784.035156 459.992188 789.304688 454.722656 795.800781 454.722656 C 802.296875 454.722656 807.566406 459.992188 807.566406 466.488281 L 807.566406 541.261719 C 807.566406 547.757812 802.296875 553.027344 795.800781 553.027344 Z M 795.800781 553.027344 " fill-opacity="1" fill-rule="nonzero"/><path fill="#000000" d="M 887.40625 1045.273438 C 880.90625 1045.273438 875.640625 1040.011719 875.640625 1033.507812 L 875.640625 958.742188 C 875.640625 952.242188 880.90625 946.976562 887.40625 946.976562 C 893.902344 946.976562 899.167969 952.238281 899.167969 958.742188 L 899.167969 1033.507812 C 899.167969 1040.011719 893.902344 1045.273438 887.40625 1045.273438 Z M 887.40625 1045.273438 " fill-opacity="1" fill-rule="nonzero"/><path fill="#000000" d="M 887.40625 553.027344 C 880.90625 553.027344 875.640625 547.757812 875.640625 541.261719 L 875.640625 466.488281 C 875.640625 459.992188 880.90625 454.722656 887.40625 454.722656 C 893.902344 454.722656 899.167969 459.992188 899.167969 466.488281 L 899.167969 541.261719 C 899.167969 547.757812 893.902344 553.027344 887.40625 553.027344 Z M 887.40625 553.027344 " fill-opacity="1" fill-rule="nonzero"/><path fill="#000000" d="M 541.253906 624.359375 L 466.488281 624.359375 C 459.992188 624.359375 454.722656 619.089844 454.722656 612.59375 C 454.722656 606.097656 459.992188 600.828125 466.488281 600.828125 L 541.253906 600.828125 C 547.753906 600.828125 553.019531 606.097656 553.019531 612.59375 C 553.019531 619.089844 547.753906 624.359375 541.253906 624.359375 Z M 541.253906 624.359375 " fill-opacity="1" fill-rule="nonzero"/><path fill="#000000" d="M 1033.511719 624.359375 L 958.738281 624.359375 C 952.242188 624.359375 946.976562 619.089844 946.976562 612.59375 C 946.976562 606.097656 952.242188 600.828125 958.738281 600.828125 L 1033.511719 600.828125 C 1040.007812 600.828125 1045.277344 606.097656 1045.277344 612.59375 C 1045.277344 619.089844 1040.007812 624.359375 1033.511719 624.359375 Z M 1033.511719 624.359375 " fill-opacity="1" fill-rule="nonzero"/><path fill="#000000" d="M 541.253906 715.964844 L 466.488281 715.964844 C 459.992188 715.964844 454.722656 710.695312 454.722656 704.199219 C 454.722656 697.703125 459.992188 692.433594 466.488281 692.433594 L 541.253906 692.433594 C 547.753906 692.433594 553.019531 697.703125 553.019531 704.199219 C 553.019531 710.695312 547.753906 715.964844 541.253906 715.964844 Z M 541.253906 715.964844 " fill-opacity="1" fill-rule="nonzero"/><path fill="#000000" d="M 1033.511719 715.964844 L 958.738281 715.964844 C 952.242188 715.964844 946.976562 710.695312 946.976562 704.199219 C 946.976562 697.703125 952.242188 692.433594 958.738281 692.433594 L 1033.511719 692.433594 C 1040.007812 692.433594 1045.277344 697.703125 1045.277344 704.199219 C 1045.277344 710.695312 1040.007812 715.964844 1033.511719 715.964844 Z M 1033.511719 715.964844 " fill-opacity="1" fill-rule="nonzero"/><path fill="#000000" d="M 541.253906 807.566406 L 466.488281 807.566406 C 459.992188 807.566406 454.722656 802.296875 454.722656 795.800781 C 454.722656 789.304688 459.992188 784.035156 466.488281 784.035156 L 541.253906 784.035156 C 547.753906 784.035156 553.019531 789.304688 553.019531 795.800781 C 553.019531 802.296875 547.753906 807.566406 541.253906 807.566406 Z M 541.253906 807.566406 " fill-opacity="1" fill-rule="nonzero"/><path fill="#000000" d="M 1033.511719 807.566406 L 958.738281 807.566406 C 952.242188 807.566406 946.976562 802.296875 946.976562 795.800781 C 946.976562 789.304688 952.242188 784.035156 958.738281 784.035156 L 1033.511719 784.035156 C 1040.007812 784.035156 1045.277344 789.304688 1045.277344 795.800781 C 1045.273438 802.296875 1040.007812 807.566406 1033.511719 807.566406 Z M 1033.511719 807.566406 " fill-opacity="1" fill-rule="nonzero"/><path fill="#000000" d="M 541.253906 899.167969 L 466.488281 899.167969 C 459.992188 899.167969 454.722656 893.902344 454.722656 887.40625 C 454.722656 880.90625 459.992188 875.640625 466.488281 875.640625 L 541.253906 875.640625 C 547.753906 875.640625 553.019531 880.90625 553.019531 887.40625 C 553.019531 893.902344 547.753906 899.167969 541.253906 899.167969 Z M 541.253906 899.167969 " fill-opacity="1" fill-rule="nonzero"/><path fill="#000000" d="M 1033.511719 899.167969 L 958.738281 899.167969 C 952.242188 899.167969 946.976562 893.902344 946.976562 887.40625 C 946.976562 880.90625 952.242188 875.640625 958.738281 875.640625 L 1033.511719 875.640625 C 1040.007812 875.640625 1045.277344 880.90625 1045.277344 887.40625 C 1045.273438 893.902344 1040.007812 899.167969 1033.511719 899.167969 Z M 1033.511719 899.167969 " fill-opacity="1" fill-rule="nonzero"/><path fill="#000000" d="M 1161.136719 438.972656 L 1004.152344 438.972656 C 997.65625 438.972656 992.386719 433.707031 992.386719 427.210938 L 992.386719 268.960938 C 992.386719 262.464844 997.65625 257.195312 1004.152344 257.195312 C 1010.648438 257.195312 1015.917969 262.464844 1015.917969 268.960938 L 1015.917969 415.445312 L 1161.140625 415.445312 C 1167.636719 415.445312 1172.902344 420.710938 1172.902344 427.210938 C 1172.902344 433.707031 1167.632812 438.972656 1161.136719 438.972656 Z M 1161.136719 438.972656 " fill-opacity="1" fill-rule="nonzero"/><path fill="#000000" d="M 1004.152344 280.746094 C 968.113281 280.746094 938.789062 251.429688 938.789062 215.386719 C 938.789062 179.347656 968.113281 150.027344 1004.152344 150.027344 C 1040.195312 150.027344 1069.515625 179.351562 1069.515625 215.390625 C 1069.515625 251.429688 1040.191406 280.746094 1004.152344 280.746094 Z M 1004.152344 173.554688 C 981.082031 173.554688 962.316406 192.320312 962.316406 215.386719 C 962.316406 238.453125 981.082031 257.21875 1004.152344 257.21875 C 1027.222656 257.21875 1045.988281 238.453125 1045.988281 215.386719 C 1045.988281 192.320312 1027.222656 173.554688 1004.152344 173.554688 Z M 1004.152344 173.554688 " fill-opacity="1" fill-rule="nonzero"/><path fill="#000000" d="M 1214.609375 493.945312 C 1178.574219 493.945312 1149.246094 464.621094 1149.246094 428.582031 C 1149.246094 392.542969 1178.574219 363.21875 1214.609375 363.21875 C 1250.648438 363.21875 1279.976562 392.542969 1279.976562 428.582031 C 1279.976562 464.621094 1250.648438 493.945312 1214.609375 493.945312 Z M 1214.609375 386.746094 C 1191.542969 386.746094 1172.777344 405.511719 1172.777344 428.582031 C 1172.777344 451.652344 1191.542969 470.417969 1214.609375 470.417969 C 1237.679688 470.417969 1256.445312 451.652344 1256.445312 428.582031 C 1256.445312 405.511719 1237.679688 386.746094 1214.609375 386.746094 Z M 1214.609375 386.746094 " fill-opacity="1" fill-rule="nonzero"/><path fill="#000000" d="M 1161.136719 760.390625 L 1094.199219 760.390625 C 1087.703125 760.390625 1082.433594 755.121094 1082.433594 748.625 C 1082.433594 742.128906 1087.703125 736.859375 1094.199219 736.859375 L 1161.136719 736.859375 C 1167.632812 736.859375 1172.902344 742.128906 1172.902344 748.625 C 1172.902344 755.121094 1167.632812 760.390625 1161.136719 760.390625 Z M 1161.136719 760.390625 " fill-opacity="1" fill-rule="nonzero"/><path fill="#000000" d="M 1214.609375 815.363281 C 1178.574219 815.363281 1149.246094 786.042969 1149.246094 750.003906 C 1149.246094 713.964844 1178.574219 684.636719 1214.609375 684.636719 C 1250.648438 684.636719 1279.976562 713.964844 1279.976562 750.003906 C 1279.976562 786.042969 1250.648438 815.363281 1214.609375 815.363281 Z M 1214.609375 708.167969 C 1191.542969 708.167969 1172.777344 726.933594 1172.777344 750.003906 C 1172.777344 773.066406 1191.542969 791.832031 1214.609375 791.832031 C 1237.679688 791.832031 1256.445312 773.066406 1256.445312 750.003906 C 1256.445312 726.933594 1237.679688 708.167969 1214.609375 708.167969 Z M 1214.609375 708.167969 " fill-opacity="1" fill-rule="nonzero"/><path fill="#000000" d="M 405.800781 763.140625 L 338.863281 763.140625 C 332.367188 763.140625 327.097656 757.871094 327.097656 751.375 C 327.097656 744.878906 332.367188 739.609375 338.863281 739.609375 L 405.800781 739.609375 C 412.296875 739.609375 417.566406 744.878906 417.566406 751.375 C 417.5625 757.871094 412.296875 763.140625 405.800781 763.140625 Z M 405.800781 763.140625 " fill-opacity="1" fill-rule="nonzero"/><path fill="#000000" d="M 285.390625 815.363281 C 249.351562 815.363281 220.023438 786.035156 220.023438 749.996094 C 220.023438 713.960938 249.351562 684.636719 285.390625 684.636719 C 321.425781 684.636719 350.753906 713.957031 350.753906 749.996094 C 350.753906 786.035156 321.429688 815.363281 285.390625 815.363281 Z M 285.390625 708.167969 C 262.320312 708.167969 243.554688 726.933594 243.554688 749.996094 C 243.554688 773.066406 262.320312 791.832031 285.390625 791.832031 C 308.457031 791.832031 327.222656 773.066406 327.222656 749.996094 C 327.226562 726.933594 308.457031 708.167969 285.390625 708.167969 Z M 285.390625 708.167969 " fill-opacity="1" fill-rule="nonzero"/><path fill="#000000" d="M 751.375 1172.902344 C 744.878906 1172.902344 739.609375 1167.640625 739.609375 1161.136719 L 739.609375 1094.195312 C 739.609375 1087.691406 744.878906 1082.429688 751.375 1082.429688 C 757.871094 1082.429688 763.140625 1087.6875 763.140625 1094.195312 L 763.140625 1161.136719 C 763.140625 1167.640625 757.871094 1172.902344 751.375 1172.902344 Z M 751.375 1172.902344 " fill-opacity="1" fill-rule="nonzero"/><path fill="#000000" d="M 749.996094 1279.976562 C 713.960938 1279.976562 684.632812 1250.65625 684.632812 1214.617188 C 684.632812 1178.574219 713.960938 1149.246094 749.996094 1149.246094 C 786.035156 1149.246094 815.363281 1178.578125 815.363281 1214.617188 C 815.363281 1250.652344 786.035156 1279.976562 749.996094 1279.976562 Z M 749.996094 1172.773438 C 726.929688 1172.773438 708.164062 1191.546875 708.164062 1214.617188 C 708.164062 1237.683594 726.929688 1256.445312 749.996094 1256.445312 C 773.066406 1256.445312 791.832031 1237.683594 791.832031 1214.617188 C 791.832031 1191.546875 773.066406 1172.773438 749.996094 1172.773438 Z M 749.996094 1172.773438 " fill-opacity="1" fill-rule="nonzero"/><path fill="#000000" d="M 748.625 417.5625 C 742.128906 417.5625 736.859375 412.296875 736.859375 405.800781 L 736.859375 338.863281 C 736.859375 332.367188 742.128906 327.097656 748.625 327.097656 C 755.121094 327.097656 760.390625 332.367188 760.390625 338.863281 L 760.390625 405.800781 C 760.390625 412.296875 755.121094 417.5625 748.625 417.5625 Z M 748.625 417.5625 " fill-opacity="1" fill-rule="nonzero"/><path fill="#000000" d="M 749.996094 350.753906 C 713.960938 350.753906 684.632812 321.425781 684.632812 285.390625 C 684.632812 249.351562 713.960938 220.023438 749.996094 220.023438 C 786.035156 220.023438 815.363281 249.351562 815.363281 285.390625 C 815.363281 321.425781 786.035156 350.753906 749.996094 350.753906 Z M 749.996094 243.554688 C 726.929688 243.554688 708.164062 262.320312 708.164062 285.390625 C 708.164062 308.457031 726.929688 327.222656 749.996094 327.222656 C 773.066406 327.222656 791.832031 308.457031 791.832031 285.390625 C 791.832031 262.320312 773.066406 243.554688 749.996094 243.554688 Z M 749.996094 243.554688 " fill-opacity="1" fill-rule="nonzero"/><path fill="#000000" d="M 495.847656 438.972656 L 338.863281 438.972656 C 332.367188 438.972656 327.097656 433.707031 327.097656 427.210938 C 327.097656 420.710938 332.367188 415.445312 338.863281 415.445312 L 484.085938 415.445312 L 484.085938 268.960938 C 484.085938 262.464844 489.351562 257.195312 495.847656 257.195312 C 502.347656 257.195312 507.613281 262.464844 507.613281 268.960938 L 507.613281 427.210938 C 507.613281 433.707031 502.34375 438.972656 495.847656 438.972656 Z M 495.847656 438.972656 " fill-opacity="1" fill-rule="nonzero"/><path fill="#000000" d="M 495.847656 280.746094 C 459.808594 280.746094 430.484375 251.429688 430.484375 215.386719 C 430.484375 179.347656 459.808594 150.023438 495.847656 150.023438 C 531.886719 150.023438 561.210938 179.347656 561.210938 215.386719 C 561.210938 251.425781 531.886719 280.746094 495.847656 280.746094 Z M 495.847656 173.554688 C 472.777344 173.554688 454.011719 192.320312 454.011719 215.386719 C 454.011719 238.453125 472.777344 257.21875 495.847656 257.21875 C 518.914062 257.21875 537.679688 238.453125 537.679688 215.386719 C 537.683594 192.320312 518.914062 173.554688 495.847656 173.554688 Z M 495.847656 173.554688 " fill-opacity="1" fill-rule="nonzero"/><path fill="#000000" d="M 285.390625 493.945312 C 249.351562 493.945312 220.023438 464.621094 220.023438 428.582031 C 220.023438 392.542969 249.351562 363.21875 285.390625 363.21875 C 321.425781 363.21875 350.753906 392.542969 350.753906 428.582031 C 350.753906 464.621094 321.429688 493.945312 285.390625 493.945312 Z M 285.390625 386.746094 C 262.320312 386.746094 243.554688 405.511719 243.554688 428.582031 C 243.554688 451.652344 262.320312 470.417969 285.390625 470.417969 C 308.457031 470.417969 327.222656 451.652344 327.222656 428.582031 C 327.222656 405.511719 308.457031 386.746094 285.390625 386.746094 Z M 285.390625 386.746094 " fill-opacity="1" fill-rule="nonzero"/><path fill="#000000" d="M 495.847656 1242.796875 C 489.351562 1242.796875 484.082031 1237.535156 484.082031 1231.03125 L 484.082031 1084.550781 L 338.863281 1084.550781 C 332.367188 1084.550781 327.097656 1079.292969 327.097656 1072.789062 C 327.097656 1066.285156 332.367188 1061.023438 338.863281 1061.023438 L 495.847656 1061.023438 C 502.34375 1061.023438 507.613281 1066.285156 507.613281 1072.789062 L 507.613281 1231.03125 C 507.613281 1237.535156 502.34375 1242.796875 495.847656 1242.796875 Z M 495.847656 1242.796875 " fill-opacity="1" fill-rule="nonzero"/><path fill="#000000" d="M 495.847656 1349.972656 C 459.808594 1349.972656 430.484375 1320.65625 430.484375 1284.613281 C 430.484375 1248.574219 459.808594 1219.246094 495.847656 1219.246094 C 531.886719 1219.246094 561.210938 1248.574219 561.210938 1284.613281 C 561.210938 1320.65625 531.886719 1349.972656 495.847656 1349.972656 Z M 495.847656 1242.773438 C 472.777344 1242.773438 454.011719 1261.546875 454.011719 1284.617188 C 454.011719 1307.683594 472.777344 1326.445312 495.847656 1326.445312 C 518.914062 1326.445312 537.679688 1307.683594 537.679688 1284.617188 C 537.679688 1261.546875 518.914062 1242.773438 495.847656 1242.773438 Z M 495.847656 1242.773438 " fill-opacity="1" fill-rule="nonzero"/><path fill="#000000" d="M 285.390625 1136.78125 C 249.351562 1136.78125 220.023438 1107.464844 220.023438 1071.421875 C 220.023438 1035.382812 249.351562 1006.054688 285.390625 1006.054688 C 321.425781 1006.054688 350.753906 1035.382812 350.753906 1071.421875 C 350.753906 1107.464844 321.429688 1136.78125 285.390625 1136.78125 Z M 285.390625 1029.582031 C 262.320312 1029.582031 243.554688 1048.351562 243.554688 1071.421875 C 243.554688 1094.492188 262.320312 1113.25 285.390625 1113.25 C 308.457031 1113.25 327.222656 1094.492188 327.222656 1071.421875 C 327.226562 1048.351562 308.457031 1029.582031 285.390625 1029.582031 Z M 285.390625 1029.582031 " fill-opacity="1" fill-rule="nonzero"/><path fill="#000000" d="M 1004.152344 1242.796875 C 997.65625 1242.796875 992.386719 1237.535156 992.386719 1231.03125 L 992.386719 1072.789062 C 992.386719 1066.285156 997.65625 1061.023438 1004.152344 1061.023438 L 1161.136719 1061.023438 C 1167.632812 1061.023438 1172.902344 1066.285156 1172.902344 1072.789062 C 1172.902344 1079.289062 1167.632812 1084.550781 1161.136719 1084.550781 L 1015.914062 1084.550781 L 1015.914062 1231.03125 C 1015.914062 1237.535156 1010.648438 1242.796875 1004.152344 1242.796875 Z M 1004.152344 1242.796875 " fill-opacity="1" fill-rule="nonzero"/><path fill="#000000" d="M 1004.152344 1349.972656 C 968.113281 1349.972656 938.789062 1320.65625 938.789062 1284.613281 C 938.789062 1248.574219 968.113281 1219.246094 1004.152344 1219.246094 C 1040.191406 1219.246094 1069.515625 1248.574219 1069.515625 1284.613281 C 1069.515625 1320.65625 1040.191406 1349.972656 1004.152344 1349.972656 Z M 1004.152344 1242.773438 C 981.082031 1242.773438 962.316406 1261.546875 962.316406 1284.617188 C 962.316406 1307.683594 981.082031 1326.445312 1004.152344 1326.445312 C 1027.222656 1326.445312 1045.988281 1307.683594 1045.988281 1284.617188 C 1045.988281 1261.546875 1027.222656 1242.773438 1004.152344 1242.773438 Z M 1004.152344 1242.773438 " fill-opacity="1" fill-rule="nonzero"/><path fill="#000000" d="M 1214.609375 1136.78125 C 1178.574219 1136.78125 1149.246094 1107.464844 1149.246094 1071.421875 C 1149.246094 1035.382812 1178.574219 1006.054688 1214.609375 1006.054688 C 1250.648438 1006.054688 1279.976562 1035.382812 1279.976562 1071.421875 C 1279.976562 1107.464844 1250.648438 1136.78125 1214.609375 1136.78125 Z M 1214.609375 1029.582031 C 1191.542969 1029.582031 1172.777344 1048.351562 1172.777344 1071.421875 C 1172.777344 1094.492188 1191.542969 1113.25 1214.609375 1113.25 C 1237.679688 1113.25 1256.445312 1094.492188 1256.445312 1071.421875 C 1256.445312 1048.351562 1237.679688 1029.582031 1214.609375 1029.582031 Z M 1214.609375 1029.582031 " fill-opacity="1" fill-rule="nonzero"/></svg>