<svg xmlns="http://www.w3.org/2000/svg" xmlns:xlink="http://www.w3.org/1999/xlink" width="2000" zoomAndPan="magnify" viewBox="0 0 1500 1499.999933" height="2000" preserveAspectRatio="xMidYMid meet" version="1.0"><defs><radialGradient gradientTransform="matrix(1, 0, 0, 1, 0.00003335, -0.00002)" gradientUnits="userSpaceOnUse" r="1060.660445" cx="749.999967" id="d49626f4ea" cy="749.999967" fx="749.999967" fy="749.999967"><stop stop-opacity="1" stop-color="rgb(99.876404%, 86.962891%, 34.841919%)" offset="0"/><stop stop-opacity="1" stop-color="rgb(99.629211%, 86.769104%, 34.729004%)" offset="0.00390625"/><stop stop-opacity="1" stop-color="rgb(99.382019%, 86.576843%, 34.616089%)" offset="0.0078125"/><stop stop-opacity="1" stop-color="rgb(99.136353%, 86.383057%, 34.501648%)" offset="0.0117188"/><stop stop-opacity="1" stop-color="rgb(98.88916%, 86.190796%, 34.388733%)" offset="0.015625"/><stop stop-opacity="1" stop-color="rgb(98.641968%, 85.997009%, 34.275818%)" offset="0.0195312"/><stop stop-opacity="1" stop-color="rgb(98.396301%, 85.804749%, 34.162903%)" offset="0.0234375"/><stop stop-opacity="1" stop-color="rgb(98.149109%, 85.610962%, 34.048462%)" offset="0.0273438"/><stop stop-opacity="1" stop-color="rgb(97.901917%, 85.418701%, 33.935547%)" offset="0.03125"/><stop stop-opacity="1" stop-color="rgb(97.65625%, 85.224915%, 33.822632%)" offset="0.0351562"/><stop stop-opacity="1" stop-color="rgb(97.409058%, 85.032654%, 33.708191%)" offset="0.0390625"/><stop stop-opacity="1" stop-color="rgb(97.161865%, 84.838867%, 33.595276%)" offset="0.0429688"/><stop stop-opacity="1" stop-color="rgb(96.916199%, 84.646606%, 33.482361%)" offset="0.046875"/><stop stop-opacity="1" stop-color="rgb(96.669006%, 84.45282%, 33.36792%)" offset="0.0507812"/><stop stop-opacity="1" stop-color="rgb(96.42334%, 84.260559%, 33.255005%)" offset="0.0546875"/><stop stop-opacity="1" stop-color="rgb(96.176147%, 84.066772%, 33.14209%)" offset="0.0585938"/><stop stop-opacity="1" stop-color="rgb(95.928955%, 83.874512%, 33.029175%)" offset="0.0625"/><stop stop-opacity="1" stop-color="rgb(95.683289%, 83.680725%, 32.914734%)" offset="0.0664062"/><stop stop-opacity="1" stop-color="rgb(95.436096%, 83.488464%, 32.801819%)" offset="0.0703125"/><stop stop-opacity="1" stop-color="rgb(95.188904%, 83.294678%, 32.688904%)" offset="0.0742188"/><stop stop-opacity="1" stop-color="rgb(94.943237%, 83.102417%, 32.574463%)" offset="0.078125"/><stop stop-opacity="1" stop-color="rgb(94.696045%, 82.90863%, 32.461548%)" offset="0.0820312"/><stop stop-opacity="1" stop-color="rgb(94.448853%, 82.71637%, 32.348633%)" offset="0.0859375"/><stop stop-opacity="1" stop-color="rgb(94.203186%, 82.522583%, 32.235718%)" offset="0.0898438"/><stop stop-opacity="1" stop-color="rgb(93.955994%, 82.330322%, 32.121277%)" offset="0.09375"/><stop stop-opacity="1" stop-color="rgb(93.710327%, 82.136536%, 32.008362%)" offset="0.0976562"/><stop stop-opacity="1" stop-color="rgb(93.463135%, 81.944275%, 31.895447%)" offset="0.101562"/><stop stop-opacity="1" stop-color="rgb(93.215942%, 81.750488%, 31.781006%)" offset="0.105469"/><stop stop-opacity="1" stop-color="rgb(92.970276%, 81.558228%, 31.668091%)" offset="0.109375"/><stop stop-opacity="1" stop-color="rgb(92.723083%, 81.364441%, 31.555176%)" offset="0.113281"/><stop stop-opacity="1" stop-color="rgb(92.475891%, 81.17218%, 31.442261%)" offset="0.117188"/><stop stop-opacity="1" stop-color="rgb(92.230225%, 80.978394%, 31.32782%)" offset="0.121094"/><stop stop-opacity="1" stop-color="rgb(91.983032%, 80.786133%, 31.214905%)" offset="0.125"/><stop stop-opacity="1" stop-color="rgb(91.73584%, 80.592346%, 31.10199%)" offset="0.128906"/><stop stop-opacity="1" stop-color="rgb(91.490173%, 80.400085%, 30.987549%)" offset="0.132812"/><stop stop-opacity="1" stop-color="rgb(91.242981%, 80.207825%, 30.874634%)" offset="0.136719"/><stop stop-opacity="1" stop-color="rgb(90.997314%, 80.014038%, 30.761719%)" offset="0.140625"/><stop stop-opacity="1" stop-color="rgb(90.750122%, 79.821777%, 30.647278%)" offset="0.144531"/><stop stop-opacity="1" stop-color="rgb(90.50293%, 79.627991%, 30.534363%)" offset="0.148438"/><stop stop-opacity="1" stop-color="rgb(90.257263%, 79.43573%, 30.421448%)" offset="0.152344"/><stop stop-opacity="1" stop-color="rgb(90.010071%, 79.241943%, 30.308533%)" offset="0.15625"/><stop stop-opacity="1" stop-color="rgb(89.762878%, 79.049683%, 30.194092%)" offset="0.160156"/><stop stop-opacity="1" stop-color="rgb(89.517212%, 78.855896%, 30.081177%)" offset="0.164062"/><stop stop-opacity="1" stop-color="rgb(89.27002%, 78.663635%, 29.968262%)" offset="0.167969"/><stop stop-opacity="1" stop-color="rgb(89.022827%, 78.469849%, 29.853821%)" offset="0.171875"/><stop stop-opacity="1" stop-color="rgb(88.777161%, 78.277588%, 29.740906%)" offset="0.175781"/><stop stop-opacity="1" stop-color="rgb(88.529968%, 78.083801%, 29.627991%)" offset="0.179688"/><stop stop-opacity="1" stop-color="rgb(88.282776%, 77.891541%, 29.515076%)" offset="0.183594"/><stop stop-opacity="1" stop-color="rgb(88.037109%, 77.697754%, 29.400635%)" offset="0.1875"/><stop stop-opacity="1" stop-color="rgb(87.789917%, 77.505493%, 29.28772%)" offset="0.191406"/><stop stop-opacity="1" stop-color="rgb(87.54425%, 77.311707%, 29.174805%)" offset="0.195312"/><stop stop-opacity="1" stop-color="rgb(87.297058%, 77.119446%, 29.060364%)" offset="0.199219"/><stop stop-opacity="1" stop-color="rgb(87.049866%, 76.925659%, 28.947449%)" offset="0.203125"/><stop stop-opacity="1" stop-color="rgb(86.804199%, 76.733398%, 28.834534%)" offset="0.207031"/><stop stop-opacity="1" stop-color="rgb(86.557007%, 76.539612%, 28.721619%)" offset="0.210938"/><stop stop-opacity="1" stop-color="rgb(86.309814%, 76.347351%, 28.607178%)" offset="0.214844"/><stop stop-opacity="1" stop-color="rgb(86.064148%, 76.153564%, 28.494263%)" offset="0.21875"/><stop stop-opacity="1" stop-color="rgb(85.816956%, 75.961304%, 28.381348%)" offset="0.222656"/><stop stop-opacity="1" stop-color="rgb(85.569763%, 75.767517%, 28.266907%)" offset="0.226562"/><stop stop-opacity="1" stop-color="rgb(85.324097%, 75.575256%, 28.153992%)" offset="0.230469"/><stop stop-opacity="1" stop-color="rgb(85.076904%, 75.38147%, 28.041077%)" offset="0.234375"/><stop stop-opacity="1" stop-color="rgb(84.831238%, 75.189209%, 27.928162%)" offset="0.238281"/><stop stop-opacity="1" stop-color="rgb(84.584045%, 74.995422%, 27.813721%)" offset="0.242188"/><stop stop-opacity="1" stop-color="rgb(84.336853%, 74.803162%, 27.700806%)" offset="0.246094"/><stop stop-opacity="1" stop-color="rgb(84.091187%, 74.609375%, 27.587891%)" offset="0.25"/><stop stop-opacity="1" stop-color="rgb(83.843994%, 74.417114%, 27.47345%)" offset="0.253906"/><stop stop-opacity="1" stop-color="rgb(83.596802%, 74.223328%, 27.360535%)" offset="0.257812"/><stop stop-opacity="1" stop-color="rgb(83.351135%, 74.031067%, 27.24762%)" offset="0.261719"/><stop stop-opacity="1" stop-color="rgb(83.103943%, 73.83728%, 27.133179%)" offset="0.265625"/><stop stop-opacity="1" stop-color="rgb(82.85675%, 73.64502%, 27.020264%)" offset="0.269531"/><stop stop-opacity="1" stop-color="rgb(82.611084%, 73.451233%, 26.907349%)" offset="0.273438"/><stop stop-opacity="1" stop-color="rgb(82.363892%, 73.258972%, 26.794434%)" offset="0.277344"/><stop stop-opacity="1" stop-color="rgb(82.118225%, 73.065186%, 26.679993%)" offset="0.28125"/><stop stop-opacity="1" stop-color="rgb(81.871033%, 72.872925%, 26.567078%)" offset="0.285156"/><stop stop-opacity="1" stop-color="rgb(81.62384%, 72.679138%, 26.454163%)" offset="0.289062"/><stop stop-opacity="1" stop-color="rgb(81.378174%, 72.486877%, 26.339722%)" offset="0.292969"/><stop stop-opacity="1" stop-color="rgb(81.130981%, 72.293091%, 26.226807%)" offset="0.296875"/><stop stop-opacity="1" stop-color="rgb(80.883789%, 72.10083%, 26.113892%)" offset="0.300781"/><stop stop-opacity="1" stop-color="rgb(80.638123%, 71.907043%, 26.000977%)" offset="0.304688"/><stop stop-opacity="1" stop-color="rgb(80.39093%, 71.714783%, 25.886536%)" offset="0.308594"/><stop stop-opacity="1" stop-color="rgb(80.143738%, 71.520996%, 25.773621%)" offset="0.3125"/><stop stop-opacity="1" stop-color="rgb(79.898071%, 71.328735%, 25.660706%)" offset="0.316406"/><stop stop-opacity="1" stop-color="rgb(79.650879%, 71.136475%, 25.546265%)" offset="0.320312"/><stop stop-opacity="1" stop-color="rgb(79.405212%, 70.942688%, 25.43335%)" offset="0.324219"/><stop stop-opacity="1" stop-color="rgb(79.15802%, 70.750427%, 25.320435%)" offset="0.328125"/><stop stop-opacity="1" stop-color="rgb(78.910828%, 70.556641%, 25.20752%)" offset="0.332031"/><stop stop-opacity="1" stop-color="rgb(78.665161%, 70.36438%, 25.093079%)" offset="0.335938"/><stop stop-opacity="1" stop-color="rgb(78.417969%, 70.170593%, 24.980164%)" offset="0.339844"/><stop stop-opacity="1" stop-color="rgb(78.170776%, 69.978333%, 24.867249%)" offset="0.34375"/><stop stop-opacity="1" stop-color="rgb(77.92511%, 69.784546%, 24.752808%)" offset="0.347656"/><stop stop-opacity="1" stop-color="rgb(77.677917%, 69.592285%, 24.639893%)" offset="0.351562"/><stop stop-opacity="1" stop-color="rgb(77.430725%, 69.398499%, 24.526978%)" offset="0.355469"/><stop stop-opacity="1" stop-color="rgb(77.185059%, 69.206238%, 24.412537%)" offset="0.359375"/><stop stop-opacity="1" stop-color="rgb(76.937866%, 69.012451%, 24.299622%)" offset="0.363281"/><stop stop-opacity="1" stop-color="rgb(76.690674%, 68.82019%, 24.186707%)" offset="0.367188"/><stop stop-opacity="1" stop-color="rgb(76.445007%, 68.626404%, 24.073792%)" offset="0.371094"/><stop stop-opacity="1" stop-color="rgb(76.197815%, 68.434143%, 23.959351%)" offset="0.375"/><stop stop-opacity="1" stop-color="rgb(75.952148%, 68.240356%, 23.846436%)" offset="0.378906"/><stop stop-opacity="1" stop-color="rgb(75.704956%, 68.048096%, 23.733521%)" offset="0.382812"/><stop stop-opacity="1" stop-color="rgb(75.457764%, 67.854309%, 23.61908%)" offset="0.386719"/><stop stop-opacity="1" stop-color="rgb(75.212097%, 67.662048%, 23.506165%)" offset="0.390625"/><stop stop-opacity="1" stop-color="rgb(74.964905%, 67.468262%, 23.39325%)" offset="0.394531"/><stop stop-opacity="1" stop-color="rgb(74.717712%, 67.276001%, 23.280334%)" offset="0.398438"/><stop stop-opacity="1" stop-color="rgb(74.472046%, 67.082214%, 23.165894%)" offset="0.402344"/><stop stop-opacity="1" stop-color="rgb(74.224854%, 66.889954%, 23.052979%)" offset="0.40625"/><stop stop-opacity="1" stop-color="rgb(73.977661%, 66.696167%, 22.940063%)" offset="0.410156"/><stop stop-opacity="1" stop-color="rgb(73.731995%, 66.503906%, 22.825623%)" offset="0.414062"/><stop stop-opacity="1" stop-color="rgb(73.484802%, 66.31012%, 22.712708%)" offset="0.417969"/><stop stop-opacity="1" stop-color="rgb(73.239136%, 66.117859%, 22.599792%)" offset="0.421875"/><stop stop-opacity="1" stop-color="rgb(72.991943%, 65.924072%, 22.486877%)" offset="0.425781"/><stop stop-opacity="1" stop-color="rgb(72.744751%, 65.731812%, 22.372437%)" offset="0.429688"/><stop stop-opacity="1" stop-color="rgb(72.499084%, 65.538025%, 22.259521%)" offset="0.433594"/><stop stop-opacity="1" stop-color="rgb(72.251892%, 65.345764%, 22.146606%)" offset="0.4375"/><stop stop-opacity="1" stop-color="rgb(72.0047%, 65.151978%, 22.032166%)" offset="0.441406"/><stop stop-opacity="1" stop-color="rgb(71.759033%, 64.959717%, 21.91925%)" offset="0.445312"/><stop stop-opacity="1" stop-color="rgb(71.511841%, 64.76593%, 21.806335%)" offset="0.449219"/><stop stop-opacity="1" stop-color="rgb(71.264648%, 64.573669%, 21.691895%)" offset="0.453125"/><stop stop-opacity="1" stop-color="rgb(71.018982%, 64.379883%, 21.578979%)" offset="0.457031"/><stop stop-opacity="1" stop-color="rgb(70.77179%, 64.187622%, 21.466064%)" offset="0.460938"/><stop stop-opacity="1" stop-color="rgb(70.526123%, 63.993835%, 21.353149%)" offset="0.464844"/><stop stop-opacity="1" stop-color="rgb(70.278931%, 63.801575%, 21.238708%)" offset="0.46875"/><stop stop-opacity="1" stop-color="rgb(70.031738%, 63.607788%, 21.125793%)" offset="0.472656"/><stop stop-opacity="1" stop-color="rgb(69.786072%, 63.415527%, 21.012878%)" offset="0.476562"/><stop stop-opacity="1" stop-color="rgb(69.538879%, 63.221741%, 20.898438%)" offset="0.480469"/><stop stop-opacity="1" stop-color="rgb(69.291687%, 63.02948%, 20.785522%)" offset="0.484375"/><stop stop-opacity="1" stop-color="rgb(69.046021%, 62.835693%, 20.672607%)" offset="0.488281"/><stop stop-opacity="1" stop-color="rgb(68.798828%, 62.643433%, 20.559692%)" offset="0.492188"/><stop stop-opacity="1" stop-color="rgb(68.551636%, 62.449646%, 20.445251%)" offset="0.496094"/><stop stop-opacity="1" stop-color="rgb(68.305969%, 62.257385%, 20.332336%)" offset="0.5"/><stop stop-opacity="1" stop-color="rgb(68.058777%, 62.063599%, 20.219421%)" offset="0.503906"/><stop stop-opacity="1" stop-color="rgb(67.81311%, 61.871338%, 20.10498%)" offset="0.507812"/><stop stop-opacity="1" stop-color="rgb(67.565918%, 61.679077%, 19.992065%)" offset="0.511719"/><stop stop-opacity="1" stop-color="rgb(67.318726%, 61.485291%, 19.87915%)" offset="0.515625"/><stop stop-opacity="1" stop-color="rgb(67.073059%, 61.29303%, 19.766235%)" offset="0.519531"/><stop stop-opacity="1" stop-color="rgb(66.825867%, 61.099243%, 19.651794%)" offset="0.523438"/><stop stop-opacity="1" stop-color="rgb(66.578674%, 60.906982%, 19.538879%)" offset="0.527344"/><stop stop-opacity="1" stop-color="rgb(66.333008%, 60.713196%, 19.425964%)" offset="0.53125"/><stop stop-opacity="1" stop-color="rgb(66.085815%, 60.520935%, 19.311523%)" offset="0.535156"/><stop stop-opacity="1" stop-color="rgb(65.838623%, 60.327148%, 19.198608%)" offset="0.539062"/><stop stop-opacity="1" stop-color="rgb(65.592957%, 60.134888%, 19.085693%)" offset="0.542969"/><stop stop-opacity="1" stop-color="rgb(65.345764%, 59.941101%, 18.972778%)" offset="0.546875"/><stop stop-opacity="1" stop-color="rgb(65.098572%, 59.74884%, 18.858337%)" offset="0.550781"/><stop stop-opacity="1" stop-color="rgb(64.852905%, 59.555054%, 18.745422%)" offset="0.554688"/><stop stop-opacity="1" stop-color="rgb(64.605713%, 59.362793%, 18.632507%)" offset="0.558594"/><stop stop-opacity="1" stop-color="rgb(64.360046%, 59.169006%, 18.518066%)" offset="0.5625"/><stop stop-opacity="1" stop-color="rgb(64.112854%, 58.976746%, 18.405151%)" offset="0.566406"/><stop stop-opacity="1" stop-color="rgb(63.865662%, 58.782959%, 18.292236%)" offset="0.570312"/><stop stop-opacity="1" stop-color="rgb(63.619995%, 58.590698%, 18.177795%)" offset="0.574219"/><stop stop-opacity="1" stop-color="rgb(63.372803%, 58.396912%, 18.06488%)" offset="0.578125"/><stop stop-opacity="1" stop-color="rgb(63.12561%, 58.204651%, 17.951965%)" offset="0.582031"/><stop stop-opacity="1" stop-color="rgb(62.879944%, 58.010864%, 17.83905%)" offset="0.585938"/><stop stop-opacity="1" stop-color="rgb(62.632751%, 57.818604%, 17.724609%)" offset="0.589844"/><stop stop-opacity="1" stop-color="rgb(62.385559%, 57.624817%, 17.611694%)" offset="0.59375"/><stop stop-opacity="1" stop-color="rgb(62.139893%, 57.432556%, 17.498779%)" offset="0.597656"/><stop stop-opacity="1" stop-color="rgb(61.8927%, 57.23877%, 17.384338%)" offset="0.601562"/><stop stop-opacity="1" stop-color="rgb(61.647034%, 57.046509%, 17.271423%)" offset="0.605469"/><stop stop-opacity="1" stop-color="rgb(61.399841%, 56.852722%, 17.158508%)" offset="0.609375"/><stop stop-opacity="1" stop-color="rgb(61.152649%, 56.660461%, 17.045593%)" offset="0.613281"/><stop stop-opacity="1" stop-color="rgb(60.906982%, 56.466675%, 16.931152%)" offset="0.617188"/><stop stop-opacity="1" stop-color="rgb(60.65979%, 56.274414%, 16.818237%)" offset="0.621094"/><stop stop-opacity="1" stop-color="rgb(60.412598%, 56.080627%, 16.705322%)" offset="0.625"/><stop stop-opacity="1" stop-color="rgb(60.166931%, 55.888367%, 16.590881%)" offset="0.628906"/><stop stop-opacity="1" stop-color="rgb(59.919739%, 55.69458%, 16.477966%)" offset="0.632812"/><stop stop-opacity="1" stop-color="rgb(59.672546%, 55.502319%, 16.365051%)" offset="0.636719"/><stop stop-opacity="1" stop-color="rgb(59.42688%, 55.308533%, 16.252136%)" offset="0.640625"/><stop stop-opacity="1" stop-color="rgb(59.179688%, 55.116272%, 16.137695%)" offset="0.644531"/><stop stop-opacity="1" stop-color="rgb(58.934021%, 54.922485%, 16.02478%)" offset="0.648438"/><stop stop-opacity="1" stop-color="rgb(58.686829%, 54.730225%, 15.911865%)" offset="0.652344"/><stop stop-opacity="1" stop-color="rgb(58.439636%, 54.536438%, 15.797424%)" offset="0.65625"/><stop stop-opacity="1" stop-color="rgb(58.19397%, 54.344177%, 15.684509%)" offset="0.660156"/><stop stop-opacity="1" stop-color="rgb(57.946777%, 54.150391%, 15.571594%)" offset="0.664062"/><stop stop-opacity="1" stop-color="rgb(57.699585%, 53.95813%, 15.457153%)" offset="0.667969"/><stop stop-opacity="1" stop-color="rgb(57.453918%, 53.764343%, 15.344238%)" offset="0.671875"/><stop stop-opacity="1" stop-color="rgb(57.206726%, 53.572083%, 15.231323%)" offset="0.675781"/><stop stop-opacity="1" stop-color="rgb(56.959534%, 53.378296%, 15.118408%)" offset="0.679688"/><stop stop-opacity="1" stop-color="rgb(56.713867%, 53.186035%, 15.003967%)" offset="0.683594"/><stop stop-opacity="1" stop-color="rgb(56.466675%, 52.992249%, 14.891052%)" offset="0.6875"/><stop stop-opacity="1" stop-color="rgb(56.221008%, 52.799988%, 14.778137%)" offset="0.691406"/><stop stop-opacity="1" stop-color="rgb(55.973816%, 52.607727%, 14.663696%)" offset="0.695312"/><stop stop-opacity="1" stop-color="rgb(55.726624%, 52.41394%, 14.550781%)" offset="0.699219"/><stop stop-opacity="1" stop-color="rgb(55.480957%, 52.22168%, 14.437866%)" offset="0.703125"/><stop stop-opacity="1" stop-color="rgb(55.233765%, 52.027893%, 14.324951%)" offset="0.707031"/><stop stop-opacity="1" stop-color="rgb(54.986572%, 51.835632%, 14.21051%)" offset="0.710938"/><stop stop-opacity="1" stop-color="rgb(54.740906%, 51.641846%, 14.097595%)" offset="0.714844"/><stop stop-opacity="1" stop-color="rgb(54.493713%, 51.449585%, 13.98468%)" offset="0.71875"/><stop stop-opacity="1" stop-color="rgb(54.246521%, 51.255798%, 13.870239%)" offset="0.722656"/><stop stop-opacity="1" stop-color="rgb(54.000854%, 51.063538%, 13.757324%)" offset="0.726562"/><stop stop-opacity="1" stop-color="rgb(53.753662%, 50.869751%, 13.644409%)" offset="0.730469"/><stop stop-opacity="1" stop-color="rgb(53.50647%, 50.67749%, 13.531494%)" offset="0.734375"/><stop stop-opacity="1" stop-color="rgb(53.260803%, 50.483704%, 13.417053%)" offset="0.738281"/><stop stop-opacity="1" stop-color="rgb(53.013611%, 50.291443%, 13.304138%)" offset="0.742188"/><stop stop-opacity="1" stop-color="rgb(52.767944%, 50.097656%, 13.191223%)" offset="0.746094"/><stop stop-opacity="1" stop-color="rgb(52.520752%, 49.905396%, 13.076782%)" offset="0.75"/><stop stop-opacity="1" stop-color="rgb(52.27356%, 49.711609%, 12.963867%)" offset="0.753906"/><stop stop-opacity="1" stop-color="rgb(52.027893%, 49.519348%, 12.850952%)" offset="0.757812"/><stop stop-opacity="1" stop-color="rgb(51.780701%, 49.325562%, 12.736511%)" offset="0.761719"/><stop stop-opacity="1" stop-color="rgb(51.533508%, 49.133301%, 12.623596%)" offset="0.765625"/><stop stop-opacity="1" stop-color="rgb(51.287842%, 48.939514%, 12.510681%)" offset="0.769531"/><stop stop-opacity="1" stop-color="rgb(51.040649%, 48.747253%, 12.397766%)" offset="0.773438"/><stop stop-opacity="1" stop-color="rgb(50.793457%, 48.553467%, 12.283325%)" offset="0.777344"/><stop stop-opacity="1" stop-color="rgb(50.547791%, 48.361206%, 12.17041%)" offset="0.78125"/><stop stop-opacity="1" stop-color="rgb(50.300598%, 48.167419%, 12.057495%)" offset="0.785156"/><stop stop-opacity="1" stop-color="rgb(50.054932%, 47.975159%, 11.943054%)" offset="0.789062"/><stop stop-opacity="1" stop-color="rgb(49.807739%, 47.781372%, 11.830139%)" offset="0.792969"/><stop stop-opacity="1" stop-color="rgb(49.560547%, 47.589111%, 11.717224%)" offset="0.796875"/><stop stop-opacity="1" stop-color="rgb(49.31488%, 47.395325%, 11.604309%)" offset="0.800781"/><stop stop-opacity="1" stop-color="rgb(49.067688%, 47.203064%, 11.489868%)" offset="0.804688"/><stop stop-opacity="1" stop-color="rgb(48.820496%, 47.009277%, 11.376953%)" offset="0.808594"/><stop stop-opacity="1" stop-color="rgb(48.574829%, 46.817017%, 11.264038%)" offset="0.8125"/><stop stop-opacity="1" stop-color="rgb(48.327637%, 46.62323%, 11.149597%)" offset="0.816406"/><stop stop-opacity="1" stop-color="rgb(48.080444%, 46.430969%, 11.036682%)" offset="0.820312"/><stop stop-opacity="1" stop-color="rgb(47.834778%, 46.237183%, 10.923767%)" offset="0.824219"/><stop stop-opacity="1" stop-color="rgb(47.587585%, 46.044922%, 10.810852%)" offset="0.828125"/><stop stop-opacity="1" stop-color="rgb(47.341919%, 45.851135%, 10.696411%)" offset="0.832031"/><stop stop-opacity="1" stop-color="rgb(47.094727%, 45.658875%, 10.583496%)" offset="0.835938"/><stop stop-opacity="1" stop-color="rgb(46.847534%, 45.465088%, 10.470581%)" offset="0.839844"/><stop stop-opacity="1" stop-color="rgb(46.601868%, 45.272827%, 10.35614%)" offset="0.84375"/><stop stop-opacity="1" stop-color="rgb(46.354675%, 45.079041%, 10.243225%)" offset="0.847656"/><stop stop-opacity="1" stop-color="rgb(46.107483%, 44.88678%, 10.13031%)" offset="0.851562"/><stop stop-opacity="1" stop-color="rgb(45.861816%, 44.692993%, 10.017395%)" offset="0.855469"/><stop stop-opacity="1" stop-color="rgb(45.614624%, 44.500732%, 9.902954%)" offset="0.859375"/><stop stop-opacity="1" stop-color="rgb(45.367432%, 44.306946%, 9.790039%)" offset="0.863281"/><stop stop-opacity="1" stop-color="rgb(45.121765%, 44.114685%, 9.677124%)" offset="0.867188"/><stop stop-opacity="1" stop-color="rgb(44.874573%, 43.920898%, 9.562683%)" offset="0.871094"/><stop stop-opacity="1" stop-color="rgb(44.62738%, 43.728638%, 9.449768%)" offset="0.875"/><stop stop-opacity="1" stop-color="rgb(44.381714%, 43.534851%, 9.336853%)" offset="0.878906"/><stop stop-opacity="1" stop-color="rgb(44.134521%, 43.34259%, 9.222412%)" offset="0.882812"/><stop stop-opacity="1" stop-color="rgb(43.888855%, 43.15033%, 9.109497%)" offset="0.886719"/><stop stop-opacity="1" stop-color="rgb(43.641663%, 42.956543%, 8.996582%)" offset="0.890625"/><stop stop-opacity="1" stop-color="rgb(43.39447%, 42.764282%, 8.883667%)" offset="0.894531"/><stop stop-opacity="1" stop-color="rgb(43.148804%, 42.570496%, 8.769226%)" offset="0.898438"/><stop stop-opacity="1" stop-color="rgb(42.901611%, 42.378235%, 8.656311%)" offset="0.902344"/><stop stop-opacity="1" stop-color="rgb(42.654419%, 42.184448%, 8.543396%)" offset="0.90625"/><stop stop-opacity="1" stop-color="rgb(42.408752%, 41.992188%, 8.428955%)" offset="0.910156"/><stop stop-opacity="1" stop-color="rgb(42.16156%, 41.798401%, 8.31604%)" offset="0.914062"/><stop stop-opacity="1" stop-color="rgb(41.914368%, 41.60614%, 8.203125%)" offset="0.917969"/><stop stop-opacity="1" stop-color="rgb(41.668701%, 41.412354%, 8.09021%)" offset="0.921875"/><stop stop-opacity="1" stop-color="rgb(41.421509%, 41.220093%, 7.975769%)" offset="0.925781"/><stop stop-opacity="1" stop-color="rgb(41.175842%, 41.026306%, 7.862854%)" offset="0.929688"/><stop stop-opacity="1" stop-color="rgb(40.92865%, 40.834045%, 7.749939%)" offset="0.933594"/><stop stop-opacity="1" stop-color="rgb(40.681458%, 40.640259%, 7.635498%)" offset="0.9375"/><stop stop-opacity="1" stop-color="rgb(40.435791%, 40.447998%, 7.522583%)" offset="0.941406"/><stop stop-opacity="1" stop-color="rgb(40.188599%, 40.254211%, 7.409668%)" offset="0.945312"/><stop stop-opacity="1" stop-color="rgb(39.941406%, 40.061951%, 7.296753%)" offset="0.949219"/><stop stop-opacity="1" stop-color="rgb(39.69574%, 39.868164%, 7.182312%)" offset="0.953125"/><stop stop-opacity="1" stop-color="rgb(39.448547%, 39.675903%, 7.069397%)" offset="0.957031"/><stop stop-opacity="1" stop-color="rgb(39.201355%, 39.482117%, 6.956482%)" offset="0.960938"/><stop stop-opacity="1" stop-color="rgb(38.955688%, 39.289856%, 6.842041%)" offset="0.964844"/><stop stop-opacity="1" stop-color="rgb(38.708496%, 39.096069%, 6.729126%)" offset="0.96875"/><stop stop-opacity="1" stop-color="rgb(38.46283%, 38.903809%, 6.616211%)" offset="0.972656"/><stop stop-opacity="1" stop-color="rgb(38.215637%, 38.710022%, 6.50177%)" offset="0.976562"/><stop stop-opacity="1" stop-color="rgb(37.968445%, 38.517761%, 6.388855%)" offset="0.980469"/><stop stop-opacity="1" stop-color="rgb(37.722778%, 38.323975%, 6.27594%)" offset="0.984375"/><stop stop-opacity="1" stop-color="rgb(37.475586%, 38.131714%, 6.163025%)" offset="0.988281"/><stop stop-opacity="1" stop-color="rgb(37.228394%, 37.937927%, 6.048584%)" offset="0.992188"/><stop stop-opacity="1" stop-color="rgb(36.982727%, 37.745667%, 5.935669%)" offset="0.996094"/><stop stop-opacity="1" stop-color="rgb(36.859131%, 37.649536%, 5.879211%)" offset="1"/></radialGradient></defs><rect x="-150" width="1800" fill="#ffffff" y="-149.999993" height="1799.99992" fill-opacity="1"/><rect x="-150" fill="url(#d49626f4ea)" width="1800" y="-149.999993" height="1799.99992"/><path fill="#000000" d="M 645.574219 1066.027344 C 645.574219 1066.914062 645.574219 1067.800781 645.574219 1068.6875 C 645.929688 1068.6875 646.460938 1068.6875 646.816406 1068.6875 C 646.105469 1066.382812 646.640625 1067.445312 645.574219 1066.027344 Z M 645.574219 1066.027344 " fill-opacity="1" fill-rule="nonzero"/><path fill="#000000" d="M 677.335938 1037.105469 C 677.335938 1038.347656 677.335938 1039.765625 677.335938 1041.007812 C 677.691406 1041.007812 678.222656 1041.007812 678.578125 1041.007812 C 678.046875 1038.347656 678.222656 1038.523438 677.335938 1037.105469 Z M 677.335938 1037.105469 " fill-opacity="1" fill-rule="nonzero"/><path fill="#000000" d="M 432.109375 1333.789062 C 431.222656 1333.789062 430.335938 1333.789062 429.449219 1333.789062 C 430.867188 1334.855469 429.804688 1334.320312 432.109375 1335.03125 C 432.109375 1334.675781 432.109375 1334.144531 432.109375 1333.789062 Z M 432.109375 1333.789062 " fill-opacity="1" fill-rule="nonzero"/><path fill="#000000" d="M 317.304688 869.597656 C 352.261719 891.246094 409.75 889.46875 441.335938 914.488281 C 441.691406 914.84375 442.222656 915.378906 442.578125 915.730469 C 442.222656 915.730469 441.691406 915.730469 441.335938 915.730469 C 434.769531 940.042969 393.425781 979.96875 374.085938 993.453125 C 367.164062 998.242188 359.003906 1000.90625 352.96875 1006.582031 C 352.613281 1006.582031 352.082031 1006.582031 351.726562 1006.582031 C 351.726562 1006.9375 351.726562 1007.46875 351.726562 1007.824219 C 384.910156 1009.246094 425.367188 1013.503906 445.417969 994.695312 C 445.773438 994.695312 446.304688 994.695312 446.660156 994.695312 C 441.691406 1002.148438 434.0625 1006.40625 426.964844 1011.90625 C 410.992188 1023.796875 390.589844 1041.894531 382.070312 1060.703125 C 364.859375 1099.03125 377.457031 1177.816406 390.054688 1212.417969 C 394.847656 1225.546875 403.71875 1239.210938 405.847656 1253.230469 C 410.992188 1244.710938 402.832031 1221.644531 405.847656 1208.335938 C 410.640625 1186.867188 414.011719 1159.007812 426.964844 1144.988281 C 426.964844 1144.101562 426.964844 1143.214844 426.964844 1142.328125 C 432.996094 1151.554688 431.578125 1176.042969 436.191406 1187.222656 C 446.304688 1211.351562 487.828125 1231.050781 475.761719 1269.023438 C 473.988281 1274.34375 470.261719 1280.203125 467.777344 1284.816406 C 464.582031 1291.027344 462.628906 1297.945312 457.308594 1302.027344 C 457.308594 1302.914062 457.308594 1303.800781 457.308594 1304.6875 C 481.4375 1290.316406 520.652344 1245.421875 510.007812 1197.867188 C 504.328125 1172.136719 498.828125 1149.425781 492.796875 1121.390625 C 486.050781 1090.160156 502.910156 1063.011719 505.925781 1039.589844 C 508.589844 1044.378906 504.863281 1053.605469 504.683594 1060.703125 C 504.152344 1078.804688 501.667969 1098.320312 505.925781 1116.066406 C 511.425781 1138.425781 518.703125 1160.070312 524.378906 1182.074219 C 539.996094 1242.230469 497.230469 1291.914062 467.597656 1312.671875 C 457.308594 1319.769531 443.820312 1324.03125 434.59375 1332.371094 C 433.707031 1332.371094 432.820312 1332.371094 431.933594 1332.371094 C 439.386719 1336.097656 469.195312 1321.011719 476.824219 1317.820312 C 505.75 1305.574219 542.300781 1294.042969 559.867188 1270.265625 C 565.371094 1262.988281 567.320312 1252.519531 573 1245.246094 C 573.886719 1242.9375 573.175781 1244.003906 574.242188 1242.582031 C 585.421875 1265.117188 606.359375 1280.554688 616.472656 1303.269531 C 620.199219 1311.785156 623.394531 1331.304688 616.472656 1338.933594 C 616.472656 1339.289062 616.472656 1339.824219 616.472656 1340.175781 C 635.816406 1334.855469 651.429688 1311.785156 658.707031 1294.042969 C 662.429688 1284.816406 662.429688 1273.8125 667.933594 1266.359375 C 667.933594 1266.007812 667.933594 1265.472656 667.933594 1265.117188 C 669.527344 1267.78125 668.109375 1271.683594 669.175781 1275.589844 C 671.480469 1284.460938 676.09375 1294.929688 681.0625 1302.027344 C 694.015625 1319.949219 726.132812 1327.222656 733.765625 1349.582031 C 746.363281 1345.679688 755.765625 1328.644531 760.203125 1316.578125 C 761.800781 1312.140625 760.734375 1308.058594 762.863281 1304.6875 C 762.863281 1298.125 762.863281 1291.558594 762.863281 1284.992188 C 763.21875 1284.992188 763.75 1284.992188 764.105469 1284.992188 C 770.671875 1298.300781 777.414062 1327.046875 765.347656 1341.773438 C 765.347656 1342.128906 765.347656 1342.660156 765.347656 1343.015625 C 772.625 1340.710938 777.949219 1335.03125 783.804688 1331.128906 C 806.160156 1316.398438 831.179688 1301.671875 831.359375 1265.117188 C 831.710938 1265.117188 832.246094 1265.117188 832.601562 1265.117188 C 838.101562 1288.363281 848.746094 1317.289062 865.605469 1329.707031 C 870.75 1333.613281 876.960938 1335.742188 881.398438 1340.175781 C 882.285156 1340.175781 883.171875 1340.175781 884.058594 1340.175781 C 868.621094 1305.574219 900.738281 1281.265625 914.402344 1262.457031 C 918.835938 1256.246094 920.96875 1249.148438 926.289062 1244.003906 C 926.289062 1243.648438 926.289062 1243.117188 926.289062 1242.761719 C 929.308594 1246.664062 928.953125 1252.699219 931.613281 1257.3125 C 939.242188 1270.621094 952.90625 1283.394531 965.859375 1291.558594 C 984.847656 1303.445312 1008.089844 1313.207031 1029.207031 1321.902344 C 1040.207031 1326.335938 1055.648438 1326.871094 1064.875 1333.789062 C 1066.117188 1333.789062 1067.535156 1333.789062 1068.777344 1333.789062 C 1068.777344 1333.433594 1068.777344 1332.902344 1068.777344 1332.546875 C 1054.050781 1328.644531 1042.871094 1317.996094 1031.867188 1310.191406 C 996.378906 1284.636719 958.050781 1238.855469 977.75 1171.785156 C 985.734375 1144.988281 996.203125 1120.148438 996.203125 1084.835938 C 996.203125 1071.707031 997.800781 1052.542969 992.300781 1044.023438 C 992.300781 1043.136719 992.300781 1042.25 992.300781 1041.363281 C 992.652344 1041.363281 993.1875 1041.363281 993.542969 1041.363281 C 999.574219 1067.445312 1013.058594 1101.515625 1005.429688 1136.292969 C 999.574219 1162.734375 982.894531 1200.351562 990.878906 1232.46875 C 996.734375 1255.890625 1008.980469 1275.765625 1023.882812 1290.492188 C 1029.207031 1295.640625 1036.660156 1298.832031 1041.097656 1305.042969 C 1041.984375 1305.042969 1042.871094 1305.042969 1043.757812 1305.042969 C 1037.546875 1292.800781 1028.144531 1281.621094 1024.0625 1266.894531 C 1014.65625 1234.066406 1043.933594 1220.046875 1055.648438 1203.546875 C 1066.117188 1188.996094 1070.195312 1166.28125 1072.859375 1144.28125 C 1073.214844 1144.28125 1073.746094 1144.28125 1074.101562 1144.28125 C 1077.472656 1156.167969 1084.570312 1167.878906 1088.652344 1179.945312 C 1093.085938 1193.429688 1090.425781 1205.320312 1093.972656 1220.757812 C 1095.570312 1227.679688 1096.636719 1243.648438 1092.730469 1249.679688 C 1092.730469 1250.921875 1092.730469 1252.34375 1092.730469 1253.585938 C 1093.085938 1253.585938 1093.621094 1253.585938 1093.972656 1253.585938 C 1096.636719 1244.003906 1102.3125 1234.597656 1105.863281 1225.902344 C 1113.316406 1207.980469 1116.6875 1187.222656 1121.65625 1167.878906 C 1136.914062 1107.726562 1120.058594 1039.234375 1084.746094 1016.164062 C 1084.746094 1015.8125 1084.746094 1015.277344 1084.746094 1014.921875 C 1108.878906 1014.746094 1128.398438 1009.066406 1149.335938 1008.359375 C 1149.335938 1008.003906 1149.335938 1007.472656 1149.335938 1007.117188 C 1121.476562 993.808594 1094.152344 969.144531 1076.761719 945.1875 C 1070.550781 936.492188 1066.824219 925.136719 1059.550781 917.507812 C 1063.808594 909.34375 1078.183594 905.441406 1087.230469 901.714844 C 1116.6875 889.292969 1157.320312 886.277344 1183.40625 870.128906 C 1227.589844 842.804688 1245.6875 787.796875 1281 751.417969 C 1280.824219 723.027344 1222.796875 705.816406 1200.617188 696.058594 C 1189.261719 691.089844 1177.371094 683.28125 1166.371094 677.601562 C 1133.898438 660.746094 1102.847656 646.371094 1074.101562 626.144531 C 1060.96875 616.917969 1048.902344 605.027344 1035.949219 595.800781 C 1024.0625 587.460938 1011.285156 579.476562 999.042969 572.023438 C 993.71875 568.832031 987.6875 568.121094 983.25 564.039062 C 976.863281 554.632812 978.457031 537.601562 974.023438 527.132812 C 967.632812 512.046875 953.617188 498.738281 949.003906 483.65625 C 947.761719 480.640625 955.035156 473.367188 958.230469 470.527344 C 957.519531 451.363281 941.726562 444.085938 933.210938 432.199219 C 926.289062 422.617188 919.726562 412.679688 913.515625 403.273438 C 880.6875 353.234375 857.085938 294.324219 833.132812 235.769531 C 821.421875 207.023438 818.226562 171 789.660156 159.289062 C 768.1875 150.417969 742.636719 163.371094 727.730469 169.757812 C 700.9375 181.472656 680.886719 195.84375 659.238281 211.992188 C 644.511719 222.816406 630.492188 238.253906 613.101562 246.238281 C 568.210938 266.820312 532.898438 234.171875 533.960938 186.972656 C 533.609375 186.972656 533.074219 186.972656 532.71875 186.972656 C 501.667969 272.320312 589.855469 318.988281 668.464844 312.246094 C 665.269531 354.125 634.039062 404.871094 607.777344 424.390625 C 594.648438 434.152344 581.164062 441.25 569.628906 452.074219 C 569.453125 460.414062 570.160156 465.734375 576.195312 467.863281 C 573.710938 473.898438 567.855469 476.027344 563.0625 479.753906 C 554.367188 486.320312 544.253906 498.5625 538.042969 507.433594 C 530.058594 518.792969 523.847656 533.875 519.589844 548.246094 C 519.234375 553.570312 518.703125 558.714844 518.347656 564.039062 C 517.28125 566.347656 481.4375 584.089844 476.117188 587.816406 C 459.96875 599.171875 444.886719 613.367188 428.5625 624.726562 C 401.589844 643.535156 371.425781 659.328125 341.613281 674.765625 C 315.175781 688.605469 286.785156 702.445312 259.8125 714.332031 C 241.714844 722.320312 219.53125 726.753906 219 752.484375 C 254.667969 787.972656 272.941406 842.09375 317.304688 869.597656 Z M 494.039062 1009.421875 C 486.761719 1019.183594 476.292969 1027.34375 469.019531 1037.105469 C 445.242188 1069.042969 425.1875 1097.257812 409.75 1138.601562 C 405.671875 1149.425781 399.816406 1161.847656 399.28125 1175.507812 C 393.25 1165.75 396.621094 1121.035156 399.28125 1109.5 C 404.074219 1088.5625 404.429688 1073.300781 413.832031 1058.042969 C 422.171875 1044.734375 436.367188 1035.863281 445.417969 1023.796875 C 454.824219 1011.375 464.9375 998.777344 473.097656 985.46875 C 481.085938 972.515625 488.003906 955.300781 492.796875 940.574219 C 495.988281 931.167969 494.390625 918.394531 499.359375 910.230469 C 499.359375 909.34375 499.359375 908.457031 499.359375 907.570312 C 499.007812 907.570312 498.472656 907.570312 498.117188 907.570312 C 484.277344 937.203125 457.839844 959.738281 430.867188 976.0625 C 417.914062 984.046875 396.445312 986.886719 384.730469 995.757812 C 383.84375 995.757812 382.957031 995.757812 382.070312 995.757812 C 382.070312 995.40625 382.070312 994.871094 382.070312 994.515625 C 398.574219 990.082031 409.574219 975.886719 421.640625 966.835938 C 453.933594 942.527344 476.46875 905.261719 492.796875 865.339844 C 501.84375 843.335938 501.667969 816.1875 511.25 794.183594 C 520.652344 772.710938 538.929688 758.871094 550.820312 740.0625 C 557.738281 752.308594 537.511719 789.214844 533.609375 798.085938 C 514.976562 841.027344 503.621094 898.164062 508.589844 959.027344 C 514.445312 950.15625 511.070312 933.476562 513.910156 922.121094 C 521.007812 893.019531 530.414062 827.71875 548.15625 812.636719 C 548.15625 811.75 548.15625 810.863281 548.15625 809.976562 C 548.511719 809.976562 549.046875 809.976562 549.398438 809.976562 C 544.609375 829.140625 536.269531 849.011719 530.945312 869.242188 C 528.460938 878.292969 531.476562 891.953125 527.042969 899.585938 C 527.042969 905.261719 527.042969 910.941406 527.042969 916.796875 C 527.398438 916.796875 527.929688 916.796875 528.285156 916.796875 C 532.011719 902.957031 543.367188 873.5 552.0625 864.097656 C 552.0625 863.742188 552.0625 863.210938 552.0625 862.855469 C 552.417969 862.855469 552.949219 862.855469 553.304688 862.855469 C 550.289062 882.195312 547.09375 901.535156 544.078125 920.878906 C 533.074219 954.769531 513.378906 983.160156 494.039062 1009.421875 Z M 579.742188 1001.4375 C 579.742188 1004.988281 579.742188 1008.535156 579.742188 1011.90625 C 579.386719 1011.90625 578.855469 1011.90625 578.5 1011.90625 C 577.257812 1004.453125 575.839844 997 574.597656 989.550781 C 574.242188 989.550781 573.710938 989.550781 573.355469 989.550781 C 562.175781 1042.960938 553.835938 1098.5 554.902344 1160.960938 C 550.640625 1154.75 551.882812 1145.699219 549.578125 1137.183594 C 543.011719 1112.164062 540.882812 1068.6875 546.914062 1041.007812 C 550.820312 1022.90625 548.867188 1007.46875 553.480469 990.96875 C 567.855469 938.445312 587.195312 878.113281 624.636719 849.902344 C 635.105469 842.09375 645.042969 833.042969 656.222656 826.125 C 666.691406 821.6875 677.335938 817.25 687.804688 812.992188 C 688.691406 812.992188 689.582031 812.992188 690.46875 812.992188 C 690.46875 813.347656 690.46875 813.878906 690.46875 814.234375 C 677.691406 818.671875 672.902344 832.332031 662.785156 839.253906 C 662.785156 840.140625 662.785156 841.027344 662.785156 841.914062 C 677.515625 834.109375 686.742188 822.042969 706.261719 818.136719 C 702.535156 822.929688 698.097656 829.316406 693.128906 832.6875 C 693.128906 833.574219 693.128906 834.464844 693.128906 835.351562 C 699.339844 831.800781 706.792969 826.832031 714.246094 824.882812 C 718.148438 823.816406 722.230469 825.058594 724.714844 823.640625 C 725.070312 823.640625 725.601562 823.640625 725.957031 823.640625 C 724.183594 832.511719 704.839844 862.144531 698.273438 867.113281 C 692.597656 871.371094 685.5 874.742188 681.0625 880.242188 C 680.707031 880.242188 680.175781 880.242188 679.820312 880.242188 C 681.417969 875.808594 682.484375 870.484375 685.144531 867.113281 C 685.144531 866.226562 685.144531 865.339844 685.144531 864.449219 C 670.769531 873.855469 668.640625 891.601562 657.464844 904.019531 C 657.464844 904.375 657.464844 904.90625 657.464844 905.261719 C 655.511719 902.777344 654.980469 900.472656 654.800781 896.035156 C 646.640625 901.359375 644.332031 911.652344 637.589844 918.394531 C 637.589844 918.75 637.589844 919.28125 637.589844 919.636719 C 637.234375 919.636719 636.703125 919.636719 636.347656 919.636719 C 636.347656 910.054688 636.347656 900.292969 636.347656 890.710938 C 635.992188 890.710938 635.460938 890.710938 635.105469 890.710938 C 631.910156 903.84375 627.476562 920.699219 620.554688 931.523438 C 616.652344 937.914062 608.664062 941.105469 606.003906 948.738281 C 605.117188 948.738281 604.230469 948.738281 603.34375 948.738281 C 604.761719 937.203125 607.957031 923.363281 613.8125 915.730469 C 613.8125 914.84375 613.8125 913.957031 613.8125 913.070312 C 598.019531 923.894531 590.566406 950.332031 584.886719 971.09375 C 582.226562 980.855469 584.535156 993.628906 579.742188 1001.4375 Z M 635.105469 653.292969 C 624.992188 650.632812 606.359375 650.988281 599.4375 655.953125 C 599.085938 655.953125 598.550781 655.953125 598.195312 655.953125 C 602.632812 650.808594 610.796875 651.695312 616.652344 647.96875 C 647.882812 648.679688 661.898438 658.4375 683.902344 666.425781 C 694.195312 670.148438 707.324219 669.796875 712.824219 662.519531 C 713.179688 662.519531 713.710938 662.519531 714.066406 662.519531 C 713.710938 662.875 713.179688 663.40625 712.824219 663.761719 C 711.226562 668.554688 708.566406 670.503906 706.261719 674.230469 C 674.320312 673.699219 660.125 659.859375 635.105469 653.292969 Z M 683.902344 702.089844 C 679.820312 715.398438 658.882812 727.820312 641.671875 719.300781 C 635.992188 716.464844 631.910156 710.074219 627.121094 706.171875 C 628.007812 697.652344 631.910156 695.167969 635.105469 688.960938 C 636.878906 691.445312 637.234375 695.878906 639.007812 698.1875 C 641.316406 704.75 646.285156 705.816406 650.898438 710.074219 C 665.625 710.429688 673.078125 708.125 678.578125 699.605469 C 681.59375 700.492188 681.59375 700.847656 683.902344 702.089844 Z M 698.453125 713.980469 C 698.808594 713.980469 699.339844 713.980469 699.695312 713.980469 C 690.289062 737.578125 669.707031 749.644531 639.007812 748.226562 C 664.382812 772.003906 708.921875 735.449219 723.472656 725.867188 C 728.085938 736.691406 728.085938 747.515625 727.375 761.535156 C 708.390625 759.050781 706.4375 760.46875 693.128906 769.519531 C 691.175781 776.261719 686.03125 786.199219 691.886719 793.296875 C 691 795.601562 691.710938 794.539062 690.644531 795.957031 C 680.175781 799.507812 669.53125 803.054688 659.058594 806.425781 C 638.652344 815.300781 606.359375 836.59375 594.46875 853.980469 C 594.117188 853.980469 593.582031 853.980469 593.230469 853.980469 C 602.101562 835.707031 615.941406 820.800781 623.570312 802.523438 C 628.183594 791.34375 624.636719 776.792969 632.796875 769.519531 C 632.796875 768.632812 632.796875 767.746094 632.796875 766.855469 C 626.589844 773.066406 620.554688 779.101562 614.34375 785.3125 C 607.777344 785.667969 606.359375 786.910156 602.457031 784.070312 C 584 777.679688 573.175781 738.464844 591.988281 724.804688 C 621.796875 702.621094 664.5625 746.984375 698.453125 713.980469 Z M 735.359375 702.089844 C 737.136719 697.832031 739.085938 698.1875 741.925781 695.523438 C 752.394531 695.347656 758.074219 696.589844 764.285156 699.429688 C 768.542969 723.207031 755.058594 754.96875 774.753906 767.921875 C 777.59375 769.164062 783.980469 767.566406 787.882812 770.582031 C 793.5625 772.535156 793.738281 775.730469 797.113281 779.808594 C 796.933594 783.183594 796.933594 784.777344 795.871094 786.375 C 792.144531 794.183594 784.867188 786.90625 777.414062 790.28125 C 769.429688 794.007812 765.882812 802.167969 755.058594 804.828125 C 735.183594 809.796875 730.746094 792.230469 719.390625 789.039062 C 714.601562 789.390625 709.808594 789.925781 704.839844 790.28125 C 703.953125 787.972656 704.664062 789.039062 703.597656 787.617188 C 703.597656 779.101562 705.019531 776.792969 707.503906 771.824219 C 715.664062 769.519531 718.328125 767.210938 724.714844 771.824219 C 729.152344 765.261719 734.296875 759.9375 736.601562 750.710938 C 740.683594 734.738281 727.730469 714.6875 735.359375 702.089844 Z M 815.742188 671.746094 C 801.726562 676.894531 791.078125 676.539062 785.398438 665.183594 C 785.046875 665.183594 784.511719 665.183594 784.15625 665.183594 C 784.15625 664.828125 784.15625 664.292969 784.15625 663.941406 C 788.59375 665.183594 790.902344 668.199219 794.628906 669.261719 C 808.113281 672.8125 832.777344 657.195312 842.183594 653.46875 C 848.214844 650.988281 855.667969 651.695312 860.636719 648.148438 C 876.785156 647.96875 892.042969 648.324219 900.207031 656.132812 C 859.039062 647.96875 846.441406 660.566406 815.742188 671.746094 Z M 872.347656 700.847656 C 870.21875 715.042969 858.328125 715.398438 848.570312 721.964844 C 833.308594 722.140625 820.535156 715.929688 816.984375 704.75 C 815.921875 703.332031 816.453125 704.398438 815.742188 702.089844 C 816.628906 701.203125 817.515625 700.316406 818.40625 699.429688 C 823.90625 701.558594 825.679688 706.347656 830.292969 708.65625 C 843.246094 715.222656 854.25 705.105469 860.636719 700.671875 C 861.699219 696.589844 862.765625 694.816406 863.296875 690.203125 C 867.378906 693.039062 868.976562 697.300781 872.347656 700.847656 Z M 793.386719 740.417969 C 806.160156 748.757812 840.050781 763.839844 857.972656 749.644531 C 858.863281 749.644531 859.75 749.644531 860.636719 749.644531 C 860.636719 749.289062 860.636719 748.757812 860.636719 748.402344 C 834.019531 749.46875 804.917969 740.417969 801.371094 715.398438 C 814.144531 719.480469 826.210938 732.964844 848.925781 727.289062 C 864.71875 723.207031 887.785156 711.316406 905.707031 723.382812 C 924.871094 736.160156 918.304688 777.503906 897.722656 784.070312 C 895.59375 785.488281 891.332031 785.488281 887.253906 785.3125 C 881.042969 778.746094 873.765625 773.246094 868.796875 765.613281 C 868.445312 765.613281 867.910156 765.613281 867.554688 765.613281 C 869.507812 772.359375 873.589844 777.328125 875.542969 784.070312 C 877.492188 791.523438 875.542969 797.554688 878.203125 803.765625 C 885.476562 821.15625 900.382812 835.707031 908.546875 853.804688 C 903.222656 848.480469 898.078125 843.335938 892.753906 838.011719 C 881.75 829.851562 870.21875 821.332031 858.507812 814.234375 C 847.503906 809.445312 836.503906 804.652344 825.503906 799.683594 C 820.535156 797.910156 814.855469 798.441406 810.953125 795.78125 C 809.710938 792.410156 814.5 785.132812 812.195312 777.328125 C 807.933594 762.242188 791.253906 757.808594 775.285156 761.535156 C 772.980469 752.128906 770.316406 735.09375 776.527344 727.285156 C 776.882812 725.335938 790.546875 738.644531 793.386719 740.417969 Z M 789.304688 876.164062 C 775.640625 867.46875 761.269531 848.304688 760.378906 827.367188 C 774.398438 836.59375 783.449219 859.128906 789.304688 876.164062 Z M 712.824219 877.582031 C 712.46875 877.582031 711.9375 877.582031 711.582031 877.582031 C 713.535156 855.222656 730.746094 841.207031 740.507812 826.125 C 747.605469 838.367188 717.792969 869.417969 712.824219 877.582031 Z M 901.449219 1216.320312 C 895.058594 1239.746094 884.945312 1255.714844 873.765625 1273.105469 C 873.410156 1273.105469 872.878906 1273.105469 872.523438 1273.105469 C 884.058594 1222.53125 884.589844 1158.121094 869.863281 1109.679688 C 865.960938 1097.078125 864.539062 1080.398438 856.730469 1071.527344 C 856.730469 1070.640625 856.730469 1069.753906 856.730469 1068.867188 C 856.378906 1068.867188 855.84375 1068.867188 855.488281 1068.867188 C 857.265625 1082.527344 861.523438 1096.902344 864.71875 1109.679688 C 867.554688 1121.035156 866.3125 1134.34375 868.621094 1145.34375 C 874.300781 1171.960938 860.992188 1209.402344 858.152344 1229.808594 C 852.296875 1220.757812 854.957031 1176.929688 851.585938 1162.554688 C 847.148438 1140.554688 842.714844 1118.550781 838.457031 1096.546875 C 832.953125 1079.511719 824.96875 1058.398438 823.90625 1038.523438 C 820.710938 1043.847656 823.90625 1051.652344 823.90625 1058.21875 C 824.082031 1075.964844 827.984375 1098.144531 826.566406 1115 C 822.839844 1156.878906 819.824219 1204.964844 806.871094 1240.277344 C 803.675781 1249.148438 802.964844 1258.554688 797.644531 1265.296875 C 797.644531 1266.183594 797.644531 1267.070312 797.644531 1267.957031 C 797.289062 1267.957031 796.757812 1267.957031 796.402344 1267.957031 C 806.160156 1218.628906 799.949219 1163.621094 796.402344 1113.757812 C 791.078125 1121.742188 793.738281 1136.292969 791.078125 1146.761719 C 786.464844 1164.863281 782.914062 1190.058594 772.625 1203.546875 C 772.625 1204.433594 772.625 1205.320312 772.625 1206.207031 C 772.269531 1206.207031 771.738281 1206.207031 771.382812 1206.207031 C 776.351562 1181.363281 786.109375 1121.566406 780.609375 1095.480469 C 775.816406 1072.59375 783.449219 1052.894531 770.140625 1038.699219 C 770.140625 1038.34375 770.140625 1037.8125 770.140625 1037.457031 C 769.785156 1037.457031 769.253906 1037.457031 768.898438 1037.457031 C 770.316406 1059.105469 775.816406 1086.078125 770.140625 1110.03125 C 763.929688 1138.246094 757.894531 1166.28125 751.6875 1194.496094 C 751.332031 1194.496094 750.796875 1194.496094 750.445312 1194.496094 C 742.8125 1161.136719 732.699219 1128.488281 729.328125 1091.578125 C 727.90625 1076.851562 727.019531 1050.234375 733.230469 1041.539062 C 733.230469 1040.296875 733.230469 1038.878906 733.230469 1037.636719 C 732.875 1037.636719 732.34375 1037.636719 731.988281 1037.636719 C 712.292969 1078.980469 719.746094 1157.054688 729.328125 1205.140625 C 728.972656 1205.140625 728.441406 1205.140625 728.085938 1205.140625 C 724.003906 1190.058594 716.730469 1174.976562 712.292969 1159.007812 C 709.453125 1148.539062 712.292969 1133.453125 706.96875 1124.761719 C 706.96875 1121.210938 706.96875 1117.664062 706.96875 1114.292969 C 706.613281 1114.292969 706.082031 1114.292969 705.726562 1114.292969 C 696.679688 1160.425781 694.902344 1221.820312 704.484375 1267.246094 C 704.128906 1267.246094 703.597656 1267.246094 703.242188 1267.246094 C 698.453125 1253.585938 693.660156 1239.921875 688.691406 1226.4375 C 685.144531 1208.867188 681.59375 1191.300781 678.222656 1173.734375 C 669.175781 1134.164062 677.691406 1082.175781 678.222656 1041.894531 C 671.125 1051.476562 670.238281 1076.316406 666.335938 1089.449219 C 653.738281 1130.972656 643.976562 1178.171875 645.21875 1231.9375 C 630.667969 1213.480469 632.089844 1137.359375 638.652344 1110.566406 C 641.671875 1098.5 640.074219 1082.707031 646.640625 1073.65625 C 646.640625 1072.414062 646.640625 1070.996094 646.640625 1069.753906 C 646.285156 1069.753906 645.75 1069.753906 645.398438 1069.753906 C 640.605469 1082.882812 635.636719 1096.191406 630.847656 1109.324219 C 617.359375 1150.84375 612.925781 1233.886719 629.605469 1274.167969 C 612.570312 1262.988281 608.132812 1238.679688 601.921875 1216.144531 C 582.226562 1144.277344 606.179688 1054.316406 634.925781 1009.066406 C 644.863281 993.453125 659.414062 981.5625 670.59375 966.835938 C 684.078125 949.089844 707.855469 932.765625 714.066406 908.8125 C 718.503906 915.910156 710.339844 936.136719 706.082031 940.394531 C 706.082031 941.285156 706.082031 942.171875 706.082031 943.058594 C 714.777344 937.378906 723.292969 927.089844 728.441406 918.039062 C 728.796875 918.039062 729.328125 918.039062 729.683594 918.039062 C 724.179688 943.945312 712.292969 990.613281 698.097656 1006.40625 C 698.097656 1007.292969 698.097656 1008.179688 698.097656 1009.066406 C 718.859375 995.582031 749.203125 951.929688 750.796875 919.457031 C 756.300781 926.554688 758.25 949.625 763.929688 959.027344 C 775.460938 978.015625 793.207031 992.210938 804.742188 1010.488281 C 805.097656 1010.488281 805.628906 1010.488281 805.984375 1010.488281 C 801.015625 993.097656 790.367188 975.886719 783.625 959.027344 C 780.609375 948.558594 777.414062 937.910156 774.398438 927.441406 C 774.398438 924.78125 774.398438 922.121094 774.398438 919.457031 C 774.753906 919.457031 775.285156 919.457031 775.640625 919.457031 C 780.609375 928.863281 789.660156 934.539062 795.335938 943.234375 C 796.222656 943.234375 797.109375 943.234375 798 943.234375 C 794.449219 935.78125 791.964844 921.054688 787.527344 914.3125 C 787.527344 912.539062 787.527344 910.761719 787.527344 908.988281 C 787.882812 908.988281 788.417969 908.988281 788.769531 908.988281 C 799.0625 930.460938 814.5 947.496094 828.339844 965.769531 C 837.746094 978.191406 852.117188 987.0625 861.34375 1000.015625 C 890.269531 1041.183594 922.03125 1141.441406 901.449219 1216.320312 Z M 951.488281 1133.277344 C 949.179688 1142.503906 950.953125 1152.972656 946.164062 1159.71875 C 946.164062 1160.605469 946.164062 1161.492188 946.164062 1162.378906 C 945.808594 1162.378906 945.277344 1162.378906 944.921875 1162.378906 C 956.457031 1098.5 931.082031 1042.78125 927.710938 988.308594 C 923.984375 993.628906 922.5625 1006.582031 922.386719 1014.746094 C 919.726562 998.066406 917.0625 981.386719 914.402344 964.707031 C 908.546875 943.945312 898.609375 930.816406 889.382812 914.667969 C 889.027344 914.667969 888.496094 914.667969 888.140625 914.667969 C 889.382812 922.121094 893.285156 935.074219 897.367188 941.105469 C 897.367188 943.769531 897.367188 946.429688 897.367188 949.089844 C 885.125 941.105469 877.671875 926.734375 872.347656 912.183594 C 869.863281 905.261719 869.6875 898.875 865.78125 893.730469 C 865.78125 892.84375 865.78125 891.953125 865.78125 891.066406 C 865.425781 891.066406 864.894531 891.066406 864.539062 891.066406 C 864.363281 895.328125 864.183594 900.472656 865.78125 902.957031 C 865.78125 909.167969 865.78125 915.199219 865.78125 921.410156 C 859.039062 916.621094 851.585938 903.488281 847.328125 896.390625 C 845.375 898.875 844.84375 902.601562 844.667969 906.859375 C 844.3125 906.859375 843.777344 906.859375 843.425781 906.859375 C 838.632812 889.117188 825.855469 878.292969 816.984375 864.628906 C 816.628906 864.628906 816.097656 864.628906 815.742188 864.628906 C 816.808594 869.242188 818.226562 873.5 821.066406 876.515625 C 821.066406 877.757812 821.066406 879.179688 821.066406 880.421875 C 809.886719 873.855469 797.644531 863.742188 790.722656 852.738281 C 785.046875 843.867188 782.207031 833.578125 774.929688 826.300781 C 774.929688 825.945312 774.929688 825.414062 774.929688 825.058594 C 787.707031 825.058594 798.886719 827.71875 805.273438 834.285156 C 806.160156 834.285156 807.046875 834.285156 807.933594 834.285156 C 805.273438 828.960938 801.015625 822.929688 796.046875 819.734375 C 796.046875 819.378906 796.046875 818.847656 796.046875 818.492188 C 810.597656 821.863281 828.164062 831.445312 835.617188 842.269531 C 836.503906 842.269531 837.390625 842.269531 838.277344 842.269531 C 832.066406 830.382812 820.886719 824.527344 813.257812 814.589844 C 840.941406 818.136719 857.441406 838.011719 875.1875 851.496094 C 914.757812 881.664062 931.082031 933.832031 946.339844 988.660156 C 950.777344 1004.632812 949.003906 1019.003906 952.90625 1036.214844 C 959.292969 1064.429688 958.050781 1106.308594 951.488281 1133.277344 Z M 1076.761719 967.191406 C 1085.457031 973.757812 1094.152344 981.03125 1103.203125 986.886719 C 1108.347656 990.257812 1114.734375 991.855469 1118.992188 996.113281 C 1083.148438 987.773438 1040.386719 962.046875 1021.398438 936.847656 C 1015.367188 928.863281 1011.285156 918.570312 1004.1875 911.828125 C 1004.1875 910.941406 1004.1875 910.054688 1004.1875 909.167969 C 1003.832031 909.167969 1003.300781 909.167969 1002.945312 909.167969 C 1005.074219 960.09375 1034.886719 995.582031 1058.308594 1026.457031 C 1063.988281 1031.78125 1069.664062 1036.925781 1075.519531 1042.25 C 1084.214844 1053.785156 1093.085938 1066.914062 1097.878906 1081.820312 C 1103.734375 1099.386719 1107.460938 1131.148438 1103.203125 1151.730469 C 1101.78125 1158.121094 1104.796875 1166.992188 1101.960938 1171.429688 C 1101.960938 1171.785156 1101.960938 1172.316406 1101.960938 1172.671875 C 1098.941406 1161.3125 1095.75 1149.78125 1092.730469 1138.425781 C 1084.570312 1118.550781 1076.050781 1097.964844 1065.050781 1080.398438 C 1039.320312 1039.765625 996.734375 1006.582031 976.683594 961.691406 C 969.054688 944.65625 966.925781 925.492188 959.472656 907.570312 C 954.859375 896.566406 948.292969 884.324219 943.679688 873.324219 C 939.777344 863.742188 939.953125 851.320312 934.453125 842.980469 C 934.453125 841.738281 934.453125 840.320312 934.453125 839.078125 C 934.808594 839.078125 935.339844 839.078125 935.695312 839.078125 C 941.726562 850.609375 951.308594 860.726562 956.808594 873.324219 C 960.359375 881.484375 960.714844 892.132812 966.039062 898.34375 C 966.039062 899.230469 966.039062 900.117188 966.039062 901.003906 C 966.390625 901.003906 966.925781 901.003906 967.28125 901.003906 C 966.746094 875.453125 961.601562 850.433594 955.390625 829.847656 C 952.375 819.914062 952.90625 808.203125 947.40625 800.925781 C 947.40625 800.570312 947.40625 800.039062 947.40625 799.683594 C 958.40625 808.023438 961.601562 825.414062 967.101562 839.253906 C 973.84375 855.933594 978.105469 876.871094 982.894531 896.035156 C 983.25 901.714844 983.78125 907.390625 984.136719 913.246094 C 987.332031 926.734375 990.878906 943.414062 990.703125 959.382812 C 997.269531 950.6875 993.1875 905.261719 990.703125 894.792969 C 983.78125 865.160156 983.960938 839.253906 973.488281 814.410156 C 963.910156 791.34375 948.472656 770.9375 947.050781 740.59375 C 955.390625 744.5 960.183594 754.613281 965.503906 761.710938 C 973.488281 772.535156 983.605469 782.472656 989.28125 795.957031 C 993.1875 805.363281 992.832031 814.765625 995.847656 824.882812 C 1001.703125 844.222656 1006.496094 863.917969 1014.300781 881.664062 C 1026.546875 908.28125 1055.113281 950.867188 1076.761719 967.191406 Z M 906.769531 533.339844 C 904.464844 532.453125 905.527344 533.164062 904.109375 532.097656 C 906.417969 532.988281 905.351562 532.277344 906.769531 533.339844 Z M 896.125 485.964844 C 893.816406 485.078125 894.882812 485.785156 893.464844 484.722656 C 895.769531 485.429688 894.882812 484.898438 896.125 485.964844 Z M 657.464844 446.394531 C 677.515625 437.699219 699.871094 429.003906 723.472656 422.617188 C 734.117188 419.777344 755.945312 422.261719 764.285156 417.292969 C 790.011719 417.648438 813.96875 419.246094 835.4375 425.277344 C 846.617188 428.292969 857.796875 434.328125 869.6875 435.746094 C 866.136719 437.699219 856.910156 435.925781 851.230469 434.503906 C 834.375 430.246094 812.371094 430.777344 793.207031 427.941406 C 786.109375 426.875 775.816406 428.117188 770.847656 429.183594 C 760.378906 429.535156 749.734375 430.070312 739.265625 430.425781 C 714.777344 436.101562 689.582031 439.828125 668.109375 447.636719 C 656.042969 452.070312 641.847656 452.425781 632.445312 459.523438 C 632.089844 459.523438 631.554688 459.523438 631.203125 459.523438 C 636.878906 452.425781 648.589844 450.296875 657.464844 446.394531 Z M 602.101562 500.335938 C 613.632812 497.144531 624.457031 490.222656 635.105469 485.785156 C 653.914062 477.980469 674.675781 472.832031 694.371094 467.332031 C 710.164062 464.671875 725.957031 462.007812 741.925781 459.347656 C 748.492188 457.929688 757.007812 460.765625 761.621094 458.105469 C 794.273438 458.636719 826.035156 461.476562 852.652344 469.992188 C 865.78125 474.429688 879.089844 478.867188 892.222656 483.125 C 887.429688 485.429688 876.605469 480.640625 871.105469 479.222656 C 852.652344 476.558594 834.195312 473.898438 815.742188 471.234375 C 807.757812 471.234375 799.949219 471.234375 791.964844 471.234375 C 783.804688 469.460938 768.367188 469.460938 760.378906 471.234375 C 749.378906 471.589844 738.378906 472.125 727.375 472.476562 C 699.695312 478.867188 670.238281 481.707031 645.574219 489.691406 C 631.910156 494.125 615.054688 493.769531 604.761719 501.578125 C 603.875 501.578125 602.988281 501.578125 602.101562 501.578125 C 602.101562 501.222656 602.101562 500.867188 602.101562 500.335938 Z M 552.0625 551.796875 C 564.304688 548.425781 576.195312 540.792969 587.726562 536.003906 C 607.070312 528.019531 629.25 523.226562 649.65625 517.550781 C 665.09375 514.886719 680.351562 512.226562 695.789062 509.5625 C 704.664062 507.613281 716.550781 510.984375 723.472656 506.902344 C 771.738281 507.257812 814.855469 506.902344 854.070312 517.371094 C 869.6875 521.628906 886.367188 528.550781 902.867188 530.503906 C 898.964844 532.453125 885.65625 529.613281 879.089844 527.839844 C 857.265625 522.164062 830.46875 522.515625 806.515625 517.371094 C 798.175781 517.371094 789.835938 517.371094 781.496094 517.371094 C 768.1875 514.355469 742.105469 514.53125 728.796875 517.371094 C 713.890625 518.257812 698.984375 519.144531 683.902344 520.03125 C 656.753906 526.242188 627.652344 529.261719 603.519531 537.246094 C 587.726562 542.390625 566.078125 543.101562 554.722656 553.039062 C 553.835938 553.039062 552.949219 553.039062 552.0625 553.039062 C 552.0625 552.683594 552.0625 552.328125 552.0625 551.796875 Z M 256.617188 741.660156 C 255.730469 741.660156 254.84375 741.660156 253.957031 741.660156 C 253.957031 741.304688 253.957031 740.773438 253.957031 740.417969 C 276.667969 734.207031 301.15625 716.816406 322.449219 707.414062 C 348.890625 695.878906 376.746094 688.605469 402.832031 677.070312 C 423.414062 668.019531 444.351562 654.535156 464.757812 645.484375 C 498.828125 630.402344 533.074219 616.917969 571.582031 605.914062 C 618.425781 592.609375 687.097656 598.285156 733.765625 608.578125 C 755.058594 613.191406 791.433594 605.914062 807.582031 602.011719 C 835.792969 595.089844 887.253906 596.15625 914.402344 603.253906 C 953.617188 613.546875 988.394531 625.078125 1022.464844 640.164062 C 1048.902344 651.875 1075.164062 668.019531 1101.605469 679.730469 C 1124.671875 689.847656 1149.160156 695.703125 1172.757812 706.171875 C 1196.183594 716.464844 1220.3125 730.125 1243.914062 740.417969 C 1243.914062 740.773438 1243.914062 741.304688 1243.914062 741.660156 C 1120.769531 714.511719 1030.09375 655.601562 909.078125 625.613281 C 871.105469 616.207031 801.371094 626.144531 768.011719 633.597656 C 748.667969 637.855469 720.808594 633.242188 706.082031 629.691406 C 676.273438 622.59375 612.039062 618.867188 580.808594 627.03125 C 524.734375 641.582031 476.46875 660.566406 426.609375 682.394531 C 403.894531 692.332031 378.34375 705.640625 352.792969 711.316406 C 348.535156 778.746094 353.148438 815.476562 375.148438 863.03125 C 366.457031 856.289062 363.261719 843.15625 357.9375 832.6875 C 342.5 801.636719 333.097656 766.148438 334.160156 718.058594 C 315.527344 720.898438 297.074219 729.59375 280.039062 735.273438 C 271.878906 737.933594 263.183594 737.222656 256.617188 741.660156 Z M 256.617188 741.660156 " fill-opacity="1" fill-rule="nonzero"/><path fill="#000000" d="M 888.316406 911.828125 C 887.429688 911.828125 886.542969 911.828125 885.65625 911.828125 C 887.785156 913.425781 886.71875 913.957031 888.316406 911.828125 Z M 888.316406 911.828125 " fill-opacity="1" fill-rule="nonzero"/><path fill="#000000" d="M 1071.617188 1333.789062 C 1070.730469 1333.789062 1069.84375 1333.789062 1068.953125 1333.789062 C 1070.375 1334.855469 1069.308594 1334.320312 1071.617188 1335.03125 C 1071.617188 1334.675781 1071.617188 1334.144531 1071.617188 1333.789062 Z M 1071.617188 1333.789062 " fill-opacity="1" fill-rule="nonzero"/></svg>